<svg width="475" height="317" viewBox="0 0 475 317" fill="none" xmlns="http://www.w3.org/2000/svg">
<g clip-path="url(#clip0_21_24085)">
<path d="M474.286 -1.52588e-05H0V316.19H474.286V-1.52588e-05Z" fill="#9DE5F5"/>
<path opacity="0.2" d="M-19.3667 132.668C107.373 137.148 200.649 98.9413 242.149 107.637C283.649 116.332 420.006 103.948 506.168 85.1079V340.432H-19.3667V132.668Z" fill="#F9F4F4"/>
<path opacity="0.2" d="M506.036 84.9762C415.131 84.9762 245.442 183.259 -8.95914 191.032V340.168H506.036V84.9762Z" fill="#F9F4F4"/>
<path opacity="0.5" d="M506.036 113.829C344.384 158.359 155.065 180.097 155.065 180.097C300.512 180.097 506.036 135.435 506.036 135.435V113.829Z" fill="#F9F4F4"/>
<path opacity="0.5" d="M-15.6778 54.9381C36.7571 42.9492 52.6984 53.0937 74.8317 62.5794C96.9651 72.0651 130.956 71.5381 158.886 68.2445C206.973 62.5794 221.992 74.7 325.149 69.8254C325.149 69.8254 264.546 79.0476 197.751 74.7C131.087 70.3524 104.475 98.1508 48.219 81.5508C16.6 72.1968 20.9476 91.6953 -15.6778 87.3476V54.9381Z" fill="#F9F4F4"/>
<path opacity="0.5" d="M198.278 56.9143C210.138 56.9143 219.752 47.2998 219.752 35.4397C219.752 23.5796 210.138 13.9651 198.278 13.9651C186.418 13.9651 176.803 23.5796 176.803 35.4397C176.803 47.2998 186.418 56.9143 198.278 56.9143Z" fill="#F9F4F4"/>
<path d="M198.278 52.1714C207.518 52.1714 215.009 44.6803 215.009 35.4397C215.009 26.199 207.518 18.7079 198.278 18.7079C189.037 18.7079 181.546 26.199 181.546 35.4397C181.546 44.6803 189.037 52.1714 198.278 52.1714Z" fill="#F9F4F4"/>
<path d="M494.838 228.448H121.602C167.713 217.117 208.29 195.511 223.178 195.511C235.825 195.511 254.138 212.77 262.702 210.267C271.265 207.763 294.979 195.116 303.411 195.116C316.981 195.116 385.884 230.029 494.706 218.567V228.448H494.838Z" fill="#9DE5F5"/>
<path d="M313.819 228.711C404.197 228.711 411.048 207.105 435.552 207.105C448.2 207.105 505.378 229.897 505.378 229.897L313.819 228.711Z" fill="#219BB8"/>
<path d="M224.232 228.711C256.114 225.154 287.997 211.057 304.465 211.057C325.281 211.057 370.206 229.897 392.208 229.897L224.232 228.711Z" fill="#2EC9D1"/>
<path d="M-20.5523 228.448H182.995C182.995 228.448 132.537 216.195 124.5 216.591C116.464 216.986 97.0969 223.046 90.1143 222.519C83.1318 221.992 49.2731 207.5 39.5238 208.818C29.7746 210.135 -20.4206 219.489 -20.4206 219.489V228.448H-20.5523Z" fill="#469455"/>
<path d="M477.448 229.897H424.486C424.222 228.448 426.462 227.525 426.462 227.525C425.935 225.417 429.492 226.076 429.492 226.076C429.887 222.519 435.421 225.681 435.421 225.681C435.684 224.89 437.792 226.076 437.792 226.076C438.451 223.968 441.217 225.154 441.217 225.154C440.69 221.86 447.673 220.806 446.882 224.89C446.882 224.89 450.44 223.178 450.967 225.417C450.967 225.417 452.152 223.178 453.865 223.573C455.578 223.968 455.841 225.154 455.841 225.154C455.841 225.154 455.446 223.968 456.763 223.31C457.949 222.783 458.608 223.968 458.608 223.968C458.871 221.729 457.29 219.489 457.29 219.489C458.74 220.279 459.794 223.705 459.794 223.705C459.267 219.094 458.344 217.249 458.344 217.249C459.925 218.698 460.979 223.31 460.979 223.31C461.111 219.884 461.638 215.668 461.638 215.668C462.428 218.435 462.297 222.783 462.297 222.783C462.297 222.783 464.141 218.04 465.59 216.59C465.59 216.59 463.878 222.124 463.878 224.364C463.878 224.364 465.063 222.124 466.381 222.519C467.698 222.914 468.357 224.232 468.357 224.232C468.884 221.86 470.728 222.519 470.728 222.519C470.465 220.279 474.813 216.327 477.579 219.357V229.897H477.448Z" fill="#226647"/>
<path d="M494.838 228.448H-20.5524V322.119H494.838V228.448Z" fill="#83A352"/>
<path d="M-9.35394 232.4H297.746L-9.35394 238.592V232.4Z" fill="#83A352"/>
<path d="M478.238 242.544C472.046 245.706 465.854 242.544 465.854 242.544C459.794 245.97 440.295 243.071 436.475 242.544C432.522 242.017 432.259 239.119 435.948 238.197C435.948 238.197 431.073 239.383 430.678 237.143C430.678 237.143 425.54 241.622 413.287 239.91C401.167 238.197 405.646 236.221 400.508 235.43C395.37 234.64 383.908 235.694 381.01 235.035C377.848 234.376 373.105 229.765 379.824 229.238C387.597 228.579 399.718 230.16 409.203 230.16C416.844 230.16 426.33 233.849 423.564 231.214C419.743 227.525 482.322 230.029 482.322 230.029L478.238 242.544Z" fill="#469455"/>
<path d="M-9.35395 247.551L91.0365 248.868L-11.1984 260.067L-9.35395 247.551Z" fill="#469455"/>
<path d="M-28.0619 345.965V269.684C101.313 249.395 138.86 252.162 150.322 249.263C161.652 246.365 145.711 240.437 145.711 240.437C161.784 241.095 215.141 237.275 258.881 236.616C302.621 235.957 368.494 233.19 403.67 240.041C438.846 246.892 504.456 246.365 504.456 246.365V346.097H-28.0619V345.965Z" fill="#D4AB77"/>
<path d="M-16.073 276.008C113.302 255.719 150.849 258.486 162.311 255.587C173.641 252.689 157.7 246.76 157.7 246.76C173.773 247.419 227.13 243.598 270.87 242.94C314.61 242.281 380.483 239.514 415.659 246.365C441.481 251.371 483.771 252.425 504.456 252.689V246.365C504.456 246.365 438.846 246.76 403.67 240.041C368.494 233.322 302.621 236.089 258.881 236.616C215.141 237.275 161.784 241.095 145.711 240.437C145.711 240.437 161.784 246.365 150.322 249.263C138.992 252.162 101.444 249.527 -28.0619 269.684V345.965H-16.073V276.008Z" fill="#D19B5C"/>
<path d="M404.988 228.711C404.988 227.394 404.724 226.603 404.724 226.603C405.251 226.998 405.383 227.789 405.383 227.789C405.646 226.998 404.856 224.495 404.856 224.495C405.646 225.286 406.173 227.657 406.173 227.657C406.305 225.813 405.778 222.914 405.778 222.914C406.7 224.232 406.964 227.525 406.964 227.525C407.359 225.681 408.149 223.573 408.149 223.573C407.886 225.154 407.754 227.525 407.754 227.525C408.018 226.867 408.94 225.154 408.94 225.154C408.676 226.34 408.545 228.711 408.545 228.711H404.988Z" fill="#83A352"/>
<path d="M391.022 228.711H398.137C398.005 227.262 396.951 227.525 396.951 227.525C397.873 226.076 397.214 224.232 394.975 224.495C393.657 224.627 393.921 226.603 393.921 226.603C392.603 225.681 392.34 226.998 392.34 226.998C390.759 226.603 390.495 227.921 391.022 228.711Z" fill="#83A352"/>
<path d="M60.0762 225.944C59.2857 225.286 58.2318 225.286 57.3096 225.681C56.9143 224.1 55.9921 222.783 54.5429 222.124C53.0937 221.465 51.2492 221.86 50.1953 223.046C49.4048 223.837 49.1413 225.022 49.0096 226.208C48.0873 225.549 47.0334 225.286 45.8476 225.417C46.1111 224.495 44.9254 223.573 44.0032 223.968C43.7397 222.783 42.8175 221.86 41.6318 221.597C41.5 221.597 41.2365 221.465 41.1048 221.597C40.8413 221.729 40.7096 221.992 40.7096 222.387C40.4461 223.441 40.1826 224.495 39.9191 225.549C39.2603 225.022 38.7334 224.495 38.0746 223.968C37.8111 224.364 37.4159 224.759 37.1524 225.022C36.8889 223.837 35.9667 222.914 34.781 222.651C34.5175 223.441 34.3857 224.232 34.1223 225.154C33.5953 224.364 32.1461 224.1 31.3556 224.89C30.9604 224.1 30.3016 223.31 29.6429 222.783C28.7207 223.31 28.0619 224.1 27.7984 225.022C27.1397 224.89 26.481 225.286 26.3492 225.813C25.6905 223.968 25.8223 221.729 26.7445 220.016C25.1635 221.07 23.9778 222.914 23.8461 224.89C23.5826 223.046 22.6604 221.465 21.2111 220.411C21.8699 221.729 22.0016 223.31 21.7381 224.759C21.0794 223.968 19.7619 223.705 18.8397 224.1C18.5762 222.783 17.2588 221.86 16.073 221.992C14.7556 222.124 13.7016 223.178 13.5699 224.495C12.6477 223.968 11.1984 224.495 10.935 225.549C10.408 224.627 8.82702 224.495 8.16829 225.417C8.43178 224.232 6.85083 223.046 5.66511 223.705C5.92861 222.783 5.26988 221.729 4.4794 221.465C3.55718 221.202 2.50321 221.597 2.10797 222.387C1.97622 221.597 0.790509 221.597 3.24249e-05 221.86C-1.44917 222.519 -2.76663 223.573 -3.55711 225.022C-5.00632 225.944 -5.40155 228.184 -4.34759 229.502L65.4778 230.556C65.3461 227.525 62.7111 225.549 60.0762 225.944Z" fill="#83A352"/>
<path d="M113.829 227.394C112.906 226.867 111.853 226.735 110.799 226.471C109.745 226.34 108.559 226.076 107.637 226.735C106.846 225.681 104.87 226.076 104.606 227.262C104.211 226.34 102.63 226.208 102.103 227.13C101.972 226.735 101.972 226.208 101.84 225.813C101.049 225.681 100.259 225.944 99.7319 226.34C100.259 225.681 99.8636 224.495 99.0731 224.232C98.2827 223.837 97.3604 224.232 96.7017 224.89C96.043 225.549 95.7795 226.34 95.516 227.262C95.3843 226.735 94.8573 226.603 94.3303 226.735C93.935 226.867 93.5398 227.262 93.2763 227.657C93.1446 227.525 92.8811 227.394 92.7493 227.262C91.8271 227.789 90.9049 228.579 90.5096 229.633L115.673 230.029C115.41 228.843 114.751 227.921 113.829 227.394Z" fill="#83A352"/>
<path d="M142.022 226.603C141.891 226.34 141.891 226.076 141.627 225.944C141.364 225.813 141.232 225.813 140.968 225.813C140.178 225.944 139.651 226.603 139.519 227.262C139.519 226.735 139.387 226.34 139.256 225.813C138.597 226.076 137.938 226.603 137.806 227.394C137.675 226.867 137.543 226.34 137.279 225.681C136.357 225.944 135.435 226.735 135.172 227.657C135.04 226.076 135.303 224.495 135.962 223.046C134.776 223.968 133.854 225.417 133.591 226.998C133.459 226.471 133.327 225.813 133.327 225.286C132.668 225.681 132.273 226.34 132.273 227.13C131.878 225.813 131.351 224.232 130.033 223.573C130.429 224.759 130.692 225.813 131.087 226.998C131.351 227.789 131.614 228.711 131.219 229.633L142.418 230.16C142.418 228.975 142.418 227.789 142.022 226.603Z" fill="#83A352"/>
<path d="M306.968 157.173C310.394 180.624 330.946 200.649 330.946 200.649L338.192 189.978C318.43 180.36 309.867 157.173 309.867 157.173C309.867 157.173 309.735 155.856 308.154 155.724C306.705 155.592 306.968 157.173 306.968 157.173Z" fill="#996A6A"/>
<path d="M319.879 159.017C322.514 166.79 315.927 172.983 315.927 172.983L318.035 174.695C325.017 166.79 321.592 159.017 321.592 159.017C321.592 159.017 321.46 157.963 320.274 158.095C319.747 158.095 319.879 159.017 319.879 159.017Z" fill="#996A6A"/>
<path d="M297.483 159.94C296.56 166.79 289.841 171.138 289.841 171.138L292.081 172.983C298.537 169.689 298.932 160.335 298.932 160.335C298.932 160.335 299.064 159.281 298.273 159.149C297.483 159.017 297.483 159.94 297.483 159.94Z" fill="#996A6A"/>
<path d="M279.038 157.568C288.129 188.002 322.514 186.552 322.514 186.552L320.275 181.941C286.416 180.229 281.937 157.173 281.937 157.173C281.937 157.173 281.673 155.329 279.96 155.724C278.511 156.119 279.038 157.568 279.038 157.568Z" fill="#996A6A"/>
<path d="M328.047 117.913C326.203 148.083 346.228 163.892 346.228 163.892L349.785 154.406C336.216 146.633 332.263 118.308 332.263 118.308L328.047 117.913Z" fill="#996A6A"/>
<path d="M403.406 121.075C406.832 137.411 401.167 149.663 401.167 149.663L405.646 147.16C409.335 139.651 405.646 121.733 405.646 121.733C405.646 121.733 405.514 120.416 404.592 120.284C403.143 119.889 403.406 121.075 403.406 121.075Z" fill="#996A6A"/>
<path d="M397.478 152.43C422.246 148.741 432.917 136.094 432.917 136.094C432.917 136.094 433.576 135.303 434.367 135.435C435.816 135.567 435.289 136.621 435.289 136.621C415.922 156.646 395.37 154.802 395.37 154.802L397.478 152.43Z" fill="#996A6A"/>
<path d="M386.938 116.463C389.837 142.022 376.267 163.233 376.267 163.233L381.01 161.389C392.867 143.735 388.914 116.463 388.914 116.463C388.914 116.463 388.914 115.541 387.86 115.541C386.938 115.541 386.938 116.463 386.938 116.463Z" fill="#996A6A"/>
<path d="M349.258 252.03H295.506C297.877 238.065 320.274 210.794 329.233 200.517C338.06 190.373 350.839 161.916 349.917 115.41H360.325C367.044 162.179 360.984 177.198 357.954 188.133C353.738 203.416 338.982 232.268 349.258 252.03Z" fill="#996A6A"/>
<path d="M356.241 180.624C370.997 181.81 379.033 168.24 383.645 163.892C393.13 154.802 417.108 144.394 426.462 132.01C426.462 132.01 428.57 130.033 426.33 128.452C423.827 126.74 423.037 128.584 423.037 128.584C419.611 140.441 395.37 148.083 373.368 163.629C365.991 168.767 358.481 167.581 355.583 170.743C349.259 177.198 356.241 180.624 356.241 180.624Z" fill="#996A6A"/>
<path d="M374.818 119.23C374.027 135.435 384.435 147.424 384.435 147.424L385.884 143.208C376.53 135.04 376.267 118.308 376.267 118.308C376.267 118.308 376.003 117.649 375.081 118.044C374.818 118.044 374.818 119.23 374.818 119.23Z" fill="#996A6A"/>
<path d="M344.779 166C344.121 168.898 343.33 171.665 342.54 174.168C344.384 173.641 347.678 172.851 350.049 172.192C353.475 171.27 355.583 166.922 354.265 165.868C353.211 165.078 347.81 165.605 344.779 166Z" fill="#B27D6D"/>
<path d="M362.829 138.202C354.133 141.627 350.708 137.411 349.522 134.908C349.391 137.806 349.127 140.705 348.732 143.471C352.289 144.262 359.271 143.735 363.092 143.34C363.092 141.627 362.96 139.914 362.829 138.202Z" fill="#B27D6D"/>
<path d="M329.233 200.517C328.575 201.308 327.784 202.23 326.994 203.152C331.737 204.075 343.067 205.392 353.738 200.913C354.529 198.673 355.319 196.433 355.978 194.457C349.786 196.697 338.587 200.122 329.233 200.517Z" fill="#B27D6D"/>
<path d="M334.503 230.029C333.449 224.759 320.801 223.705 314.873 218.04C311.447 222.651 307.89 227.525 304.728 232.268C315.005 233.717 334.503 230.029 334.503 230.029Z" fill="#B27D6D"/>
<path d="M373.236 167.581C373.5 170.216 373.368 173.246 373.236 174.563C375.476 172.719 377.452 170.611 379.033 168.767C378.243 167.844 377.189 166.659 376.53 165.21C376.662 165.21 372.973 164.156 373.236 167.581Z" fill="#B27D6D"/>
<path d="M387.992 131.483C387.728 134.381 389.046 135.303 387.992 137.148C387.201 138.597 387.07 141.363 388.255 142.154C389.177 137.411 389.441 132.668 389.573 128.716C388.519 128.979 388.123 129.506 387.992 131.483Z" fill="#B27D6D"/>
<path d="M422.51 147.029C423.563 146.37 424.749 145.579 425.803 144.789C425.671 143.998 425.54 143.076 425.276 142.417C424.354 142.944 423.432 143.603 422.51 144.13C422.51 145.184 422.51 146.106 422.51 147.029Z" fill="#B27D6D"/>
<path d="M378.638 131.483C377.979 132.537 377.584 133.722 377.321 134.908C377.716 135.962 378.111 137.016 378.638 137.938C378.902 136.357 379.165 134.776 379.429 133.59C379.165 132.932 378.902 132.141 378.638 131.483Z" fill="#B27D6D"/>
<path d="M411.575 144.789C412.76 143.998 413.814 143.208 415 142.417C415 140.968 414.605 139.783 414.341 138.86C413.682 139.387 413.024 139.783 412.365 140.31C412.101 142.286 411.838 143.735 411.575 144.789Z" fill="#B27D6D"/>
<path d="M323.173 178.384C321.46 181.019 319.089 183.127 319.089 183.127C321.065 182.995 323.832 181.941 325.808 181.019C324.886 180.229 324.095 179.306 323.173 178.384Z" fill="#B27D6D"/>
<path d="M305.783 180.887C305.256 180.36 304.86 179.702 304.465 179.043C300.908 177.857 297.878 176.408 295.375 174.827C294.979 176.671 295.77 177.857 298.141 178.911C300.908 180.097 303.675 180.36 304.729 181.81C305.124 182.468 305.519 183.259 305.651 183.917C306.441 184.181 307.232 184.444 307.891 184.576C307.495 183.259 306.705 181.546 305.783 180.887Z" fill="#B27D6D"/>
<path d="M405.646 135.83C405.119 136.884 405.119 138.729 405.646 139.256C405.91 139.519 406.568 139.387 407.095 139.124C407.095 137.675 407.095 136.225 407.095 134.776C406.436 135.04 405.91 135.435 405.646 135.83Z" fill="#B27D6D"/>
<path d="M376.267 118.176C376.267 118.176 376.003 117.517 375.081 117.913C374.686 118.044 374.818 119.23 374.818 119.23C374.686 121.865 374.818 124.368 375.213 126.74C375.872 126.871 376.662 126.871 377.452 126.871C376.267 121.997 376.267 118.176 376.267 118.176Z" fill="#785450"/>
<path d="M387.729 115.541C386.806 115.541 386.938 116.332 386.938 116.332C387.202 119.098 387.333 121.733 387.333 124.237C387.992 123.841 388.651 123.446 389.441 123.051C389.31 118.967 388.914 116.463 388.914 116.463C388.914 116.463 388.783 115.541 387.729 115.541Z" fill="#785450"/>
<path d="M422.773 135.962C424.09 134.644 425.408 133.327 426.462 131.878C426.462 131.878 428.57 129.902 426.33 128.321C423.827 126.608 423.036 128.452 423.036 128.452C422.509 130.297 421.455 132.01 420.006 133.722C420.797 134.513 421.719 135.171 422.773 135.962Z" fill="#785450"/>
<path d="M434.367 135.435C433.576 135.303 432.917 136.094 432.917 136.094C432.917 136.094 431.468 137.806 428.438 140.046C429.097 140.441 429.624 140.836 430.283 141.232C431.863 139.783 433.576 138.333 435.157 136.621C435.289 136.621 435.816 135.567 434.367 135.435Z" fill="#785450"/>
<path d="M281.937 157.173C281.937 157.173 281.673 155.329 279.96 155.724C278.511 156.119 279.038 157.568 279.038 157.568C279.565 159.413 280.224 161.257 281.014 162.838C281.805 162.575 282.727 162.311 283.649 161.916C282.332 159.149 281.937 157.173 281.937 157.173Z" fill="#785450"/>
<path d="M406.964 132.8C406.568 126.871 405.514 121.602 405.514 121.602C405.514 121.602 405.383 120.284 404.46 120.152C403.143 119.889 403.406 121.075 403.406 121.075C404.197 124.632 404.46 128.057 404.46 131.087C405.251 131.746 406.173 132.273 406.964 132.8Z" fill="#785450"/>
<path d="M361.906 127.794C361.511 123.973 360.984 119.889 360.325 115.541H349.917C350.049 119.23 349.917 122.919 349.917 126.476C351.63 127.003 353.343 127.398 355.187 127.662C355.583 134.776 354.792 142.813 354.792 142.813C355.846 140.837 356.505 133.195 356.9 127.925C358.613 127.925 360.457 127.925 361.906 127.794Z" fill="#785450"/>
<path d="M298.273 159.017C297.483 158.886 297.483 159.808 297.483 159.808C297.219 161.652 296.56 163.365 295.77 164.814C296.429 165.21 297.219 165.605 297.878 165.737C298.932 162.838 299.064 160.203 299.064 160.203C299.064 160.203 299.195 159.149 298.273 159.017Z" fill="#785450"/>
<path d="M328.048 117.913C327.784 122.524 328.048 126.74 328.575 130.56C330.814 130.297 332.79 129.902 334.635 129.375C332.922 123.183 332.132 118.308 332.132 118.308L328.048 117.913Z" fill="#785450"/>
<path d="M322.383 165.078C322.778 161.521 321.592 159.017 321.592 159.017C321.592 159.017 321.46 157.963 320.275 158.095C319.616 158.095 319.879 159.017 319.879 159.017C320.538 161.125 320.538 163.102 320.275 164.814C320.933 164.946 321.592 165.078 322.383 165.078Z" fill="#785450"/>
<path d="M308.154 155.724C306.705 155.592 306.968 157.173 306.968 157.173C307.364 159.808 308.022 162.443 308.813 164.946C309.998 164.814 311.711 164.551 313.16 164.024C310.921 159.94 309.867 157.173 309.867 157.173C309.867 157.173 309.735 155.856 308.154 155.724Z" fill="#785450"/>
<path d="M330.156 252.03C334.503 224.363 340.037 221.202 348.468 198.146C344.384 214.878 336.875 229.238 334.503 252.03H330.156Z" fill="#785450"/>
<path d="M363.751 172.587C369.548 170.348 381.932 159.676 391.549 154.933C391.549 154.933 381.668 162.179 376.135 166.263C370.733 170.348 363.751 172.587 363.751 172.587Z" fill="#785450"/>
<path d="M452.811 108.822C452.811 108.822 464.273 111.457 463.483 123.446C462.692 135.435 443.984 147.687 427.911 135.567C411.838 123.578 420.27 127.794 417.767 125.027C415.132 122.26 402.616 126.608 398.532 123.314C394.316 120.021 392.998 117.254 384.962 121.602C376.925 125.949 368.889 123.578 365.2 116.463C336.611 100.39 381.273 73.5143 392.603 87.7429C398.4 75.0952 415.395 80.2333 415.395 80.2333C430.678 60.3397 464.405 89.8508 452.811 108.822Z" fill="#197858"/>
<path d="M455.446 146.502C458.344 138.992 450.308 134.644 450.308 134.644C447.014 145.579 455.446 146.502 455.446 146.502Z" fill="#197858"/>
<path d="M394.052 128.979C401.957 130.692 404.987 121.997 404.987 121.997C393.657 120.416 394.052 128.979 394.052 128.979Z" fill="#197858"/>
<path d="M409.862 130.956C413.287 123.578 405.514 118.703 405.514 118.703C401.43 129.506 409.862 130.956 409.862 130.956Z" fill="#197858"/>
<path d="M467.303 131.087C460.979 126.081 454.392 132.405 454.392 132.405C463.878 138.992 467.303 131.087 467.303 131.087Z" fill="#197858"/>
<path d="M458.213 84.581C451.757 85.2397 451.494 92.6175 451.494 92.6175C460.584 91.0365 458.213 84.581 458.213 84.581Z" fill="#197858"/>
<path d="M459.794 98.4143C458.871 91.9587 451.494 92.0905 451.494 92.0905C453.47 101.181 459.794 98.4143 459.794 98.4143Z" fill="#197858"/>
<path d="M346.756 120.416C355.187 127.135 374.949 122.787 380.351 115.41C384.567 122.129 434.894 124.368 421.456 91.6952C421.456 91.6952 447.146 83 435.552 59.4174C425.408 38.8651 404.46 46.9016 404.46 46.9016C410.521 37.8111 403.802 29.6428 398.268 26.7444C392.735 23.846 378.243 24.373 376.662 23.1873C375.213 22.0016 374.949 22.0016 373.895 19.6302C365.991 1.05396 310.394 22.3968 306.573 59.2857C306.573 59.2857 281.146 51.3809 282.991 77.8619C282.991 77.8619 261.779 88.1381 268.235 104.606C274.691 121.075 309.603 119.23 309.603 119.23C314.346 136.225 346.756 120.416 346.756 120.416Z" fill="#4AB54E"/>
<path d="M398.4 26.8762C392.867 23.846 378.375 24.5047 376.794 23.319C375.344 22.1333 375.081 22.1333 374.027 19.7619C365.991 1.05395 310.394 22.3968 306.573 59.2857C306.573 59.2857 281.146 51.3809 282.991 77.8619C282.991 77.8619 274.295 82.0778 269.684 89.4555C266.522 95.9111 272.846 102.103 278.906 103.157C285.23 104.343 291.554 101.313 296.429 96.9651C302.884 91.1682 308.022 83.9222 311.316 75.8857C313.951 80.3651 321.856 80.1016 324.227 75.3587C327.257 78.7841 332.527 79.5746 336.875 78.1254C341.222 76.6762 344.779 73.3825 347.546 69.8254C352.157 63.8968 355.319 56.9143 356.768 49.5365C358.481 56.519 361.511 63.8968 367.835 67.454C375.871 72.0651 386.675 68.6397 393.394 62.1841C398.137 57.7047 400.244 55.4651 404.329 46.9016C410.652 37.9428 403.933 29.7746 398.4 26.8762Z" fill="#A1C24E"/>
<path d="M313.951 24.7682C315.005 32.8048 324.227 32.8048 324.227 32.8048C321.856 21.4746 313.951 24.7682 313.951 24.7682Z" fill="#A1C24E"/>
<path d="M283.122 54.2793C284.176 62.3159 293.398 62.3159 293.398 62.3159C291.027 51.1174 283.122 54.2793 283.122 54.2793Z" fill="#A1C24E"/>
<path d="M328.706 92.7492C329.76 100.786 338.983 100.786 338.983 100.786C336.611 89.4555 328.706 92.7492 328.706 92.7492Z" fill="#A1C24E"/>
<path d="M343.198 88.1381C336.216 92.2222 339.905 100.654 339.905 100.654C349.259 94.0667 343.198 88.1381 343.198 88.1381Z" fill="#A1C24E"/>
<path d="M389.573 75.6222C382.591 79.7063 386.279 88.1381 386.279 88.1381C395.633 81.5508 389.573 75.6222 389.573 75.6222Z" fill="#A1C24E"/>
<path d="M377.057 83.7904C378.902 89.192 385.225 88.0063 385.225 88.0063C382.195 80.4968 377.057 83.7904 377.057 83.7904Z" fill="#A1C24E"/>
<path d="M400.508 18.4444C392.603 19.8936 392.999 28.9841 392.999 28.9841C404.197 26.2174 400.508 18.4444 400.508 18.4444Z" fill="#A1C24E"/>
<path d="M325.017 17.2587C318.957 22.5285 323.964 30.1698 323.964 30.1698C332.132 22.1333 325.017 17.2587 325.017 17.2587Z" fill="#A1C24E"/>
<path d="M383.776 45.4524C375.871 46.9016 376.267 55.9921 376.267 55.9921C387.465 53.2254 383.776 45.4524 383.776 45.4524Z" fill="#4AB54E"/>
<path d="M327.916 56.3873C330.551 64.0286 339.51 62.1841 339.51 62.1841C335.03 51.5127 327.916 56.3873 327.916 56.3873Z" fill="#4AB54E"/>
<path d="M289.71 73.119C292.344 80.7603 301.303 78.9159 301.303 78.9159C296.824 68.3762 289.71 73.119 289.71 73.119Z" fill="#4AB54E"/>
<path d="M348.337 50.5905C340.432 52.3032 341.222 61.5254 341.222 61.5254C352.289 58.2317 348.337 50.5905 348.337 50.5905Z" fill="#4AB54E"/>
<path d="M338.192 45.3206C334.371 50.1952 339.378 55.2016 339.378 55.2016C344.252 47.8238 338.192 45.3206 338.192 45.3206Z" fill="#4AB54E"/>
<path d="M357.032 18.9714C351.499 21.7381 353.738 28.4571 353.738 28.4571C361.379 23.846 357.032 18.9714 357.032 18.9714Z" fill="#4AB54E"/>
<path d="M435.684 59.4174C425.54 38.8651 404.592 46.9016 404.592 46.9016C414.473 49.0095 427.252 55.8603 426.594 66.0047C426.067 76.1492 417.371 85.2397 407.359 86.2936C409.335 89.719 408.544 94.1984 406.041 97.2286C403.538 100.259 399.849 102.103 396.029 103.025C389.31 104.738 376.398 99.8635 369.416 99.3365C363.487 102.63 357.295 112.643 334.767 116.068C328.575 116.99 322.119 114.487 316.849 111.062C304.333 117.122 289.314 117.649 276.14 112.906C288.524 120.152 309.735 119.098 309.735 119.098C314.346 136.225 346.756 120.284 346.756 120.284C355.187 127.003 374.949 122.656 380.351 115.278C384.567 121.997 434.894 124.236 421.456 91.5635C421.587 91.6952 447.278 83 435.684 59.4174Z" fill="#469455"/>
<path d="M431.864 102.367C424.618 98.8095 419.479 106.319 419.479 106.319C430.151 110.798 431.864 102.367 431.864 102.367Z" fill="#469455"/>
<path d="M424.091 118.044C428.438 111.194 421.456 105.265 421.456 105.265C415.922 115.41 424.091 118.044 424.091 118.044Z" fill="#469455"/>
<path d="M290.632 155.46C290.237 154.933 297.878 168.635 313.819 160.598C313.819 160.598 328.575 164.024 335.425 155.197C335.425 155.197 331.868 153.616 333.581 150.059C335.294 146.502 339.378 141.232 333.186 135.962C327.125 130.56 317.64 133.59 317.64 133.59C317.64 133.59 314.873 118.044 295.243 121.338C277.062 124.368 280.092 139.256 280.092 139.256C265.205 130.033 254.138 174.695 290.632 155.46Z" fill="#4AB54E"/>
<path d="M317.244 132.668C317.244 132.537 317.244 132.537 317.376 132.405C316.322 128.979 311.843 118.44 295.111 121.206C276.93 124.237 279.96 139.124 279.96 139.124C273.9 135.303 268.367 140.837 266.654 147.029C267.181 147.819 267.84 148.478 268.498 148.873C270.343 150.19 272.846 150.454 275.086 150.059C278.906 149.532 282.2 147.16 284.703 144.13C287.075 141.1 288.656 137.543 289.841 133.854C290.105 135.435 292.081 136.357 293.662 135.83C295.243 135.435 296.429 134.117 297.614 132.8C299.459 136.489 303.543 138.86 307.627 138.86C311.711 138.86 315.532 136.357 317.244 132.668Z" fill="#A1C24E"/>
<path d="M275.349 126.608C279.433 132.273 286.548 128.452 286.548 128.452C279.96 120.811 275.349 126.608 275.349 126.608Z" fill="#A1C24E"/>
<path d="M308.813 115.41C301.698 115.541 300.776 123.446 300.776 123.446C310.789 122.656 308.813 115.41 308.813 115.41Z" fill="#A1C24E"/>
<path d="M295.902 117.254C296.033 122.787 302.225 123.578 302.225 123.578C301.567 115.673 295.902 117.254 295.902 117.254Z" fill="#A1C24E"/>
<path d="M313.687 160.598C313.687 160.598 328.443 164.024 335.294 155.197C335.294 155.197 331.737 153.616 333.449 150.059C335.162 146.502 339.246 141.232 333.054 135.962C327.784 131.351 320.011 132.932 318.035 133.459L317.903 133.854C322.251 134.249 326.467 136.884 328.838 140.573C330.156 142.549 330.814 145.052 330.287 147.292C329.629 149.532 327.389 151.508 325.017 151.113C325.676 151.903 325.544 153.089 324.886 153.879C324.227 154.67 323.305 155.065 322.251 155.329C318.167 156.251 314.083 154.143 310.525 152.035C308.944 153.748 306.31 154.275 303.938 154.011C298.668 153.616 293.662 150.981 290.5 146.765C288.26 152.035 282.463 155.065 276.93 156.119C273.241 156.91 268.894 156.778 266.522 153.879C266.39 153.748 266.259 153.616 266.259 153.484C267.444 159.94 274.295 164.156 290.5 155.592C290.764 155.987 298.405 168.371 313.687 160.598Z" fill="#469455"/>
<path d="M322.119 141.495C326.862 145.316 331.737 140.441 331.737 140.441C324.754 135.698 322.119 141.495 322.119 141.495Z" fill="#469455"/>
<path d="M302.094 149.005C299.195 154.275 304.729 158.359 304.729 158.359C308.286 150.454 302.094 149.005 302.094 149.005Z" fill="#4AB54E"/>
<path d="M304.597 128.057C302.225 132.405 306.705 135.567 306.705 135.567C309.603 129.243 304.597 128.057 304.597 128.057Z" fill="#4AB54E"/>
<path d="M398.663 250.713C403.143 243.73 394.579 239.91 391.154 244.389C391.286 239.383 383.381 238.987 382.195 242.808C382.854 236.879 375.74 238.592 375.74 238.592C379.692 233.586 372.446 230.951 370.075 235.167C372.841 232.663 372.446 221.597 364.409 221.202C355.056 220.806 355.583 232.532 355.583 232.532C348.073 225.417 344.516 243.203 344.516 243.203C339.641 243.071 340.432 250.581 344.516 250.581H398.663V250.713Z" fill="#226647"/>
<path d="M269.025 252.03C271.792 237.802 278.775 244.257 278.775 244.257C280.487 235.957 287.206 239.119 287.206 239.119C287.206 239.119 287.997 235.035 289.841 234.64C291.686 234.376 293.53 237.802 293.53 237.802C295.243 233.19 299.459 237.933 298.273 240.437C298.273 240.437 303.938 238.856 303.675 249.263L269.025 252.03Z" fill="#226647"/>
<path d="M81.8143 247.287H57.7048C57.7048 238.724 69.6937 226.208 74.4365 212.375C79.7064 196.697 79.8381 175.486 79.8381 175.486L83.2635 174.036C85.6349 183.654 86.2937 197.356 83.7905 211.189C82.473 219.884 72.8556 236.484 81.8143 247.287Z" fill="#996A6A"/>
<path d="M83.3952 203.152C86.6889 194.589 106.714 184.708 109.086 174.036H111.457C109.613 185.367 85.1079 201.176 83.2635 210.267L83.3952 203.152Z" fill="#996A6A"/>
<path d="M103.421 185.103C118.703 181.414 119.362 176.408 119.362 176.408C119.362 176.408 119.625 175.222 120.548 175.354C121.733 175.617 121.602 176.54 121.602 176.54C115.805 187.079 102.235 187.079 102.235 187.079L103.421 185.103Z" fill="#996A6A"/>
<path d="M93.0127 176.013C91.827 180.887 96.1746 190.109 96.1746 190.109L98.546 188.002C94.3301 184.181 94.3302 175.617 94.3302 175.617L93.0127 176.013Z" fill="#996A6A"/>
<path d="M52.0397 175.09C57.7048 184.444 65.346 208.29 76.0175 212.111L78.1254 205.787C73.2508 199.463 67.5857 199.595 54.5429 174.168C54.5429 174.168 53.8841 172.851 52.6984 173.378C51.381 174.036 52.0397 175.09 52.0397 175.09Z" fill="#996A6A"/>
<path d="M66.927 171.929C68.3762 179.043 60.4714 187.079 60.4714 187.079L62.3159 190.109C68.7714 184.181 68.7714 172.719 68.7714 172.719C68.7714 172.719 68.7714 171.533 68.1127 171.138C66.7952 170.479 66.927 171.929 66.927 171.929Z" fill="#996A6A"/>
<path d="M81.8143 213.56C93.2762 212.77 102.367 203.943 102.367 203.943C102.367 203.943 102.894 203.416 103.025 203.416C103.684 203.548 103.552 203.943 103.552 203.943C101.444 210.135 80.6286 218.04 80.6286 218.04L81.8143 213.56Z" fill="#996A6A"/>
<path d="M92.7492 210.53C102.235 214.878 117.649 202.625 117.649 202.625C117.649 202.625 118.176 202.23 118.308 202.23C118.703 202.098 118.835 202.625 118.835 202.625C100.127 218.962 91.1683 212.111 91.1683 212.111L92.7492 210.53Z" fill="#996A6A"/>
<path d="M78.1254 238.197C75.0952 237.143 74.4365 234.376 74.9635 230.819C75.6222 226.603 78.9159 223.968 78.1254 219.357C77.5984 216.327 75.4905 214.219 74.173 213.033C73.9095 213.824 73.5143 214.746 73.2508 215.536C74.5682 216.986 75.754 219.094 75.4905 221.333C74.8317 225.681 73.9095 228.052 73.9095 228.052C71.9333 226.208 71.6698 221.86 71.8016 218.83C71.1429 220.279 70.3524 221.729 69.4302 223.178C69.2984 225.681 69.9571 227.921 71.5381 229.897C74.4365 233.586 68.6397 241.095 78.5206 241.095C78.3889 240.041 78.2571 239.119 78.1254 238.197Z" fill="#B27D6D"/>
<path d="M102.63 212.506C103.421 212.243 104.211 211.979 105.002 211.584C105.265 210.925 105.397 210.135 105.529 209.476C104.87 209.74 104.079 210.003 103.421 210.267C103.157 211.189 102.894 211.848 102.63 212.506Z" fill="#B27D6D"/>
<path d="M87.7429 213.956C88.4016 213.956 91.4318 213.165 91.3 211.189C90.1143 211.716 88.7968 212.243 87.3476 212.638C87.3476 213.297 87.3476 213.956 87.7429 213.956Z" fill="#B27D6D"/>
<path d="M88.6651 198.541C88.9286 199.332 88.6651 200.649 88.4016 201.967C89.3238 201.044 90.2461 199.99 91.1683 198.936C91.1683 198.409 91.0365 198.014 91.0365 197.619C90.9048 196.038 94.5937 193.271 94.4619 191.032C92.354 192.744 90.3778 194.457 88.6651 196.17C88.5334 197.092 88.4016 198.014 88.6651 198.541Z" fill="#B27D6D"/>
<path d="M95.2524 181.809C94.7254 182.6 94.3301 183.127 93.8032 183.522C94.0667 184.313 94.1984 184.971 94.4619 185.63C94.9889 185.235 95.5159 184.708 96.0428 184.181C95.6476 183.39 95.3841 182.6 95.2524 181.809Z" fill="#B27D6D"/>
<path d="M85.5032 190.636C84.1857 189.583 81.5508 189.451 79.3111 186.684C79.1794 188.792 78.9159 191.163 78.5206 193.535C80.8921 192.744 83.7905 193.008 85.5032 194.984C85.5032 193.535 85.5032 192.086 85.5032 190.636Z" fill="#B27D6D"/>
<path d="M74.173 201.703C73.3826 202.625 72.3286 203.021 71.1429 200.913C69.8254 198.541 66.7952 198.146 67.7175 195.379C67.0587 194.589 66.2683 193.667 65.4778 192.613C64.9508 194.194 63.8968 195.511 64.6873 197.487C65.7413 199.859 69.0349 200.781 70.2206 203.152C71.2746 205.392 74.4365 206.314 75.4905 203.152C75.0953 202.494 74.7 202.098 74.173 201.703Z" fill="#B27D6D"/>
<path d="M65.6095 179.57C65.346 179.965 65.2143 180.492 64.9508 180.887C65.346 181.678 66.0047 182.732 66.6635 183.39C66.927 182.6 67.1905 181.941 67.454 181.151C66.927 180.756 66.2682 180.36 65.6095 179.57Z" fill="#B27D6D"/>
<path d="M111.984 151.903C140.178 135.698 134.644 154.933 134.644 154.933C134.644 154.933 150.849 154.011 147.819 163.233C145.448 170.216 140.178 171.665 143.867 173.773C148.214 176.408 139.651 180.492 127.925 181.151C114.487 181.81 108.427 173.378 108.427 173.378C98.2825 170.216 101.049 147.16 111.984 151.903Z" fill="#4AB54E"/>
<path d="M134.644 155.065C134.644 155.065 137.938 143.603 126.476 145.843C125.422 147.16 124.5 148.741 123.841 150.454C123.446 151.64 123.051 152.825 123.183 154.011C123.314 155.987 124.895 157.832 126.871 158.49C128.848 159.149 130.956 158.754 132.668 157.436C131.746 159.017 130.824 160.598 130.297 162.443C129.902 164.287 129.902 166.263 130.956 167.844C132.405 169.952 135.698 170.479 137.806 169.03C137.543 170.348 138.729 171.665 139.914 171.929C140.968 172.192 141.89 171.929 142.944 171.665C143.735 170.084 146.502 167.976 147.951 163.497C150.849 154.011 134.644 155.065 134.644 155.065Z" fill="#A1C24E"/>
<path d="M141.232 156.778C138.333 154.67 142.022 151.244 142.022 151.244C144.657 155.329 141.232 156.778 141.232 156.778Z" fill="#A1C24E"/>
<path d="M147.424 162.443C150.19 160.071 152.562 164.551 152.562 164.551C147.951 166.132 147.424 162.443 147.424 162.443Z" fill="#A1C24E"/>
<path d="M147.292 161.916C146.37 158.49 151.376 158.095 151.376 158.095C150.849 162.838 147.292 161.916 147.292 161.916Z" fill="#A1C24E"/>
<path d="M135.171 165.736C134.249 162.311 139.256 161.916 139.256 161.916C138.729 166.79 135.171 165.736 135.171 165.736Z" fill="#4AB54E"/>
<path d="M144.525 174.3C144.394 174.827 144.13 175.354 143.735 175.749C142.944 176.671 141.759 177.198 140.705 177.594C132.932 180.36 123.973 179.175 117.254 174.432C121.733 171.006 122.392 163.76 118.703 159.544C118.308 159.017 117.781 158.622 117.781 157.963C117.781 157.568 117.781 157.173 117.913 156.778C118.571 154.406 119.23 151.903 119.889 149.532C120.021 149.005 120.152 148.346 120.284 147.819C117.913 148.873 115.146 150.19 111.984 152.035C101.049 147.292 98.2825 170.348 108.427 173.51C108.427 173.51 114.487 181.941 127.925 181.283C138.992 180.624 147.16 176.935 144.525 174.3Z" fill="#469455"/>
<path d="M123.71 171.797C122.787 168.371 127.794 167.976 127.794 167.976C127.267 172.851 123.71 171.797 123.71 171.797Z" fill="#469455"/>
<path d="M70.7476 137.016C81.419 111.721 112.906 125.817 107.241 137.148C123.183 139.651 113.96 158.886 113.96 158.886C124.763 166.659 113.302 179.306 103.552 176.54C93.6714 173.773 89.3238 181.678 81.8143 179.57C74.3047 177.594 72.0651 166 72.0651 166C61.6571 171.006 45.0571 162.048 48.219 150.19C54.5428 127.135 70.7476 137.016 70.7476 137.016Z" fill="#4AB54E"/>
<path d="M113.96 158.886C113.96 158.886 123.314 139.651 107.241 137.148C112.906 125.817 81.419 111.852 70.7476 137.016C70.7476 137.016 58.7587 129.638 51.3809 142.286C52.9618 143.603 55.0698 144.394 57.1777 144.657C61.5253 145.184 66.0047 144.13 69.5618 141.759C71.1428 144.262 74.0412 145.843 76.9396 145.975C79.838 146.106 82.8682 144.789 84.7126 142.549C83.7904 148.083 86.8206 154.011 91.9587 156.514C94.3301 157.7 97.2285 157.963 99.3364 156.646C100.917 159.544 104.079 161.652 107.505 161.916C110.14 162.179 112.775 161.257 114.882 159.676C114.487 159.413 114.224 159.149 113.96 158.886Z" fill="#A1C24E"/>
<path d="M97.2285 124.895C93.6714 125.422 94.0666 120.284 94.0666 120.284C98.6777 121.602 97.2285 124.895 97.2285 124.895Z" fill="#A1C24E"/>
<path d="M100.786 126.871C100.786 123.314 105.792 124.236 105.792 124.236C103.948 128.848 100.786 126.871 100.786 126.871Z" fill="#A1C24E"/>
<path d="M115.805 145.184C115.805 141.627 120.811 142.549 120.811 142.549C118.967 147.029 115.805 145.184 115.805 145.184Z" fill="#A1C24E"/>
<path d="M62.9746 135.567C59.4174 135.83 60.0762 130.824 60.0762 130.824C64.6873 132.405 62.9746 135.567 62.9746 135.567Z" fill="#A1C24E"/>
<path d="M98.8095 125.686C96.3063 123.183 100.522 120.416 100.522 120.416C102.367 124.895 98.8095 125.686 98.8095 125.686Z" fill="#A1C24E"/>
<path d="M106.056 161.389C109.613 161.125 108.954 166.132 108.954 166.132C104.343 164.683 106.056 161.389 106.056 161.389Z" fill="#A1C24E"/>
<path d="M103.421 176.671C107.373 177.725 111.721 176.276 114.619 173.773C114.224 173.905 113.829 174.036 113.433 174.168C108.427 175.222 103.421 173.509 98.6777 171.533C98.019 171.27 97.3603 171.006 96.7016 171.006C95.7793 171.138 95.1206 171.665 94.3301 172.06C90.9047 174.168 86.2936 174.3 82.7365 172.324C79.1793 170.348 76.9397 166.263 76.9397 162.179C70.6158 164.551 63.3698 164.419 57.046 161.784C54.4111 160.73 51.9079 159.017 50.327 156.778C49.0095 154.802 48.3508 152.694 48.219 150.322C45.0571 162.179 61.6571 171.138 72.0651 166.132C72.0651 166.132 74.3047 177.725 81.6825 179.833C89.192 181.809 93.6714 173.905 103.421 176.671Z" fill="#469455"/>
<path d="M93.276 165.736C89.7189 165.209 91.4316 160.467 91.4316 160.467C95.6475 162.838 93.276 165.736 93.276 165.736Z" fill="#469455"/>
<path d="M95.2522 166C96.4379 162.575 100.786 165.341 100.786 165.341C97.4919 168.898 95.2522 166 95.2522 166Z" fill="#469455"/>
<path d="M91.0367 148.873C88.797 146.106 93.2763 143.735 93.2763 143.735C94.7255 148.346 91.0367 148.873 91.0367 148.873Z" fill="#4AB54E"/>
<path d="M80.6287 138.86C77.0716 138.202 78.916 133.59 78.916 133.59C83.1319 136.094 80.6287 138.86 80.6287 138.86Z" fill="#4AB54E"/>
<path d="M99.7317 137.806C98.1508 134.513 103.157 133.327 103.157 133.327C103.421 138.202 99.7317 137.806 99.7317 137.806Z" fill="#4AB54E"/>
<path d="M93.6714 149.795C94.8571 146.37 99.2047 149.136 99.2047 149.136C95.9111 152.694 93.6714 149.795 93.6714 149.795Z" fill="#4AB54E"/>
<path d="M100.654 195.775C94.1984 193.008 91.0365 203.152 99.7318 203.152C103.552 209.871 113.433 203.679 113.433 203.679C124.368 210.53 132.405 202.23 132.01 199.595C131.746 198.014 129.243 199.068 129.243 196.17C129.243 189.056 118.176 192.481 118.176 192.481C118.176 192.481 119.098 178.384 106.187 182.864C95.5159 186.552 100.654 195.775 100.654 195.775Z" fill="#4AB54E"/>
<path d="M125.29 196.829C126.344 197.487 127.662 197.883 128.584 197.356C128.848 197.224 129.111 196.96 129.243 196.697C129.243 196.565 129.243 196.433 129.243 196.302C129.243 189.187 118.176 192.613 118.176 192.613C118.176 192.613 119.098 178.516 106.187 182.995C96.0429 186.552 100.259 195.116 100.654 195.906C101.313 196.17 101.971 196.302 102.762 196.302C103.552 196.302 104.343 196.038 104.87 195.643C105.924 194.852 106.319 193.403 107.241 192.217C107.11 193.93 108.954 195.379 110.667 195.248C112.379 195.248 113.829 194.062 114.883 192.613C115.41 194.721 116.859 196.565 118.703 197.487C120.548 198.41 122.919 198.541 124.895 197.751C125.159 197.487 125.554 197.092 125.29 196.829Z" fill="#A1C24E"/>
<path d="M113.433 183.654C110.14 182.205 113.038 178.121 113.038 178.121C116.463 181.546 113.433 183.654 113.433 183.654Z" fill="#A1C24E"/>
<path d="M114.751 185.103C117.517 182.732 119.889 187.211 119.889 187.211C115.278 188.66 114.751 185.103 114.751 185.103Z" fill="#A1C24E"/>
<path d="M109.876 191.559C106.582 190.11 109.481 186.025 109.481 186.025C112.906 189.451 109.876 191.559 109.876 191.559Z" fill="#4AB54E"/>
<path d="M113.433 203.679C124.368 210.53 132.405 202.23 132.01 199.595C131.878 198.937 131.351 198.673 130.824 198.41C130.824 198.937 130.824 199.595 130.429 200.122C129.902 201.176 128.979 201.835 128.057 202.362C124.368 204.47 119.494 204.47 115.805 202.362C114.883 201.835 113.96 201.044 112.906 200.517C112.775 200.386 112.511 200.386 112.379 200.386C112.116 200.386 111.852 200.649 111.721 200.781C110.14 202.494 107.768 203.416 105.529 203.152C103.289 203.021 101.049 201.703 99.7317 199.859C98.8095 200.781 97.2286 200.913 96.0428 200.122C95.2524 199.595 94.7254 198.805 94.4619 197.883C93.6714 200.122 94.8571 203.021 99.6 203.021C103.421 209.871 113.433 203.679 113.433 203.679Z" fill="#469455"/>
<path d="M107.11 203.811C103.816 202.362 106.714 198.278 106.714 198.278C110.14 201.703 107.11 203.811 107.11 203.811Z" fill="#469455"/>
<path d="M64.9509 174.3C68.508 172.06 73.3826 180.36 79.1795 171.138C83.2636 164.683 78.2572 157.832 73.7779 159.149C73.7779 159.149 69.6937 140.178 53.6207 151.64C53.6207 151.64 48.0874 147.951 42.554 152.694C37.0207 157.436 40.7096 162.179 40.7096 162.179C35.4398 157.7 22.7921 171.402 32.2779 175.354C32.1461 175.354 35.308 193.535 64.9509 174.3Z" fill="#469455"/>
<path d="M70.8794 154.406C67.0588 152.694 70.6159 147.819 70.6159 147.819C74.4366 152.035 70.8794 154.406 70.8794 154.406Z" fill="#469455"/>
<path d="M71.2747 154.802C70.7477 150.586 76.6763 150.981 76.6763 150.981C75.3588 156.514 71.2747 154.802 71.2747 154.802Z" fill="#469455"/>
<path d="M79.4429 164.287C82.6048 161.389 85.635 166.527 85.635 166.527C80.3652 168.503 79.4429 164.287 79.4429 164.287Z" fill="#469455"/>
<path d="M79.0476 171.138C79.3111 170.743 79.4429 170.348 79.7063 169.952C79.4429 170.216 79.0476 170.479 78.6524 170.743C76.4127 172.06 73.646 172.192 71.1429 171.533C68.6397 170.875 66.4 169.425 64.2921 167.844C63.5016 170.479 61.3936 172.587 59.154 174.168C56.2555 176.276 52.8302 177.725 49.273 177.989C45.7159 178.121 41.8952 176.803 39.6556 174.036C38.2063 172.324 37.4159 169.689 38.6016 167.844C37.1524 168.24 35.1762 168.635 34.254 167.317C33.5952 166.395 33.8587 164.946 34.3857 163.892C34.7809 163.233 35.0444 162.575 35.5714 161.916C30.1698 164.024 24.9 172.587 32.0143 175.486C32.0143 175.486 35.3079 193.798 64.819 174.432C68.3762 171.929 73.3825 180.229 79.0476 171.138Z" fill="#197858"/>
<path d="M44.1349 177.594C40.3143 175.881 43.8714 171.006 43.8714 171.006C47.692 175.222 44.1349 177.594 44.1349 177.594Z" fill="#197858"/>
<path d="M57.573 161.389C54.2793 162.97 53.0936 157.963 53.0936 157.963C57.9682 157.7 57.573 161.389 57.573 161.389Z" fill="#197858"/>
<path d="M58.3635 161.784C58.3635 158.227 63.3698 159.149 63.3698 159.149C61.5254 163.629 58.3635 161.784 58.3635 161.784Z" fill="#197858"/>
<path d="M58.3635 159.017C55.8603 156.514 60.0762 153.748 60.0762 153.748C61.9206 158.227 58.3635 159.017 58.3635 159.017Z" fill="#197858"/>
<path d="M44.5301 177.989C44.0032 173.773 49.9317 174.168 49.9317 174.168C48.4825 179.702 44.5301 177.989 44.5301 177.989Z" fill="#197858"/>
<path d="M56.2556 177.989C60.0762 176.276 61.3936 182.205 61.3936 182.205C55.7286 182.205 56.2556 177.989 56.2556 177.989Z" fill="#197858"/>
<path d="M493.389 322.119V252.03C324.622 238.987 147.819 253.084 -22.0016 295.506V321.856L493.389 322.119Z" fill="#469455"/>
<path d="M98.8095 271.133C100.259 264.678 95.5158 255.587 95.5158 255.587C95.5158 255.587 100.522 255.983 103.816 263.36C103.816 263.36 102.762 255.324 109.744 250.054C109.744 250.054 108.822 258.354 109.876 263.36L114.751 258.222C114.751 258.222 115.409 263.36 118.703 268.367L98.8095 271.133Z" fill="#469455"/>
<path d="M334.108 249H352.42C352.42 249 357.69 238.592 355.978 237.275C352.947 235.035 346.36 242.413 346.36 242.413C346.36 242.413 352.025 229.633 348.336 228.184C345.701 227.13 339.378 235.298 338.851 242.676C338.851 242.676 338.324 232.663 335.952 233.322C330.024 235.035 334.108 249 334.108 249Z" fill="#469455"/>
<path d="M-22.0016 303.543C118.571 264.151 316.322 246.365 415.659 255.851C415.659 255.851 201.308 245.311 -22.0016 313.424V303.543Z" fill="#83A352"/>
<path d="M330.156 306.573C323.568 306.968 316.981 308.286 310.262 308.022C304.729 307.759 299.327 306.441 293.925 305.519C250.581 297.746 206.314 312.238 162.311 310.657C132.009 309.603 102.103 300.908 71.8016 302.752C37.9428 304.729 6.32378 319.748 -24.2413 334.371L438.583 318.43C417.635 317.903 396.556 315.795 376.003 311.975C360.852 309.34 345.57 305.651 330.156 306.573Z" fill="#83A352"/>
<path d="M480.214 270.738C406.7 264.414 346.756 270.211 346.756 270.211C419.216 272.978 480.214 279.433 480.214 279.433V270.738Z" fill="#83A352"/>
<path d="M127.267 305.783C127.135 305.124 126.871 304.465 126.608 303.938C125.949 304.202 125.29 304.597 124.763 305.256C124.5 303.148 123.709 301.04 122.524 299.327C122.26 301.04 122.129 302.884 122.26 304.729C122.129 303.938 121.206 303.543 120.416 303.806C119.625 304.07 119.098 304.597 118.571 305.124C118.44 304.333 118.308 303.543 118.176 302.752C117.386 303.016 116.727 303.411 116.2 304.07C116.068 303.148 115.936 302.094 115.673 301.171C114.487 301.962 113.302 303.016 112.643 304.202C112.775 301.698 112.906 299.327 113.038 296.824C111.457 298.8 110.667 301.303 110.667 303.806C110.14 301.567 109.349 299.327 108.295 297.351C108.032 299.459 107.9 301.567 108.163 303.675C107.636 302.621 106.714 301.698 105.66 301.171C106.187 303.279 106.714 305.256 107.241 307.363L131.087 309.603C130.956 307.627 130.56 305.783 129.902 303.938C128.979 304.202 128.057 304.992 127.267 305.783Z" fill="#83A352"/>
<path d="M186.816 306.573C186.684 306.046 186.552 305.387 186.157 305.124C185.63 304.729 184.971 304.86 184.313 305.124C183.522 305.387 182.732 305.651 182.205 306.178C181.809 306.441 181.546 306.968 181.546 307.364C181.151 306.441 179.833 305.914 178.911 306.31C177.594 306.837 176.935 308.286 176.671 309.603C175.617 308.417 173.246 308.813 172.719 310.394C172.192 309.603 171.138 309.471 170.348 309.998C171.402 308.154 169.952 305.387 167.844 305.124C165.868 304.992 164.024 307.232 164.551 309.208C164.155 308.286 163.497 307.627 162.575 307.495C161.521 307.363 160.467 308.417 160.598 309.471C158.886 309.076 157.173 311.184 157.963 312.765H186.421C186.948 310.657 187.211 308.549 186.816 306.573Z" fill="#83A352"/>
<path d="M486.538 288.919C434.235 284.835 381.668 283.913 329.365 286.284C331.473 289.841 335.821 291.159 339.905 291.422C343.989 291.686 348.073 290.895 352.157 291.422C353.475 291.554 354.924 291.949 355.846 292.871C357.032 293.925 357.427 295.506 358.349 296.692C360.194 299.064 363.355 299.591 366.386 299.854C406.7 303.806 447.673 298.01 487.724 304.07L486.538 288.919Z" fill="#197858"/>
<path d="M273.373 275.876C259.935 275.086 239.514 277.852 220.016 284.703C218.83 285.098 217.513 285.625 217.117 286.811C216.59 288.129 217.513 289.71 218.698 290.368C219.884 291.027 221.465 291.159 222.914 291.159C227.789 291.29 232.795 291.159 237.67 290.632C240.305 290.368 243.203 290.105 245.706 291.027C247.419 291.686 248.868 292.871 250.581 293.53C253.084 294.584 255.982 294.452 258.749 294.321C267.313 293.794 275.744 292.608 284.176 291.027C286.284 290.632 288.392 290.236 290.236 289.051C292.081 287.865 293.53 285.889 293.398 283.781C293.267 281.541 291.422 279.697 289.314 278.906C287.206 278.379 277.457 276.14 273.373 275.876Z" fill="#197858"/>
<path d="M249.132 275.876C248.868 272.583 249.263 269.157 250.054 265.863C247.814 268.367 246.892 271.792 247.287 274.954C246.497 273.11 245.706 271.133 244.652 269.421C244.916 271.792 245.179 274.163 245.311 276.535C244.652 275.349 243.73 274.163 242.808 273.11C243.994 275.613 244.652 278.248 244.916 281.014L253.084 278.906C252.162 276.271 251.635 273.505 251.635 270.606C250.713 272.187 249.79 274.032 249.132 275.876Z" fill="#197858"/>
<path d="M278.643 274.69C278.511 274.163 278.248 273.637 277.852 273.373C277.325 273.11 276.798 273.241 276.271 273.373C275.744 273.637 275.349 274.032 275.086 274.427C275.217 273.768 275.086 273.11 274.559 272.714C274.032 272.319 273.241 272.451 272.978 273.11C273.11 271.924 272.846 270.606 272.319 269.552C272.187 269.157 271.924 268.762 271.529 268.498C271.265 268.367 270.87 268.367 270.606 268.367C269.421 268.498 268.498 269.421 267.971 270.475C267.444 271.529 267.444 272.714 267.708 273.9C266.917 273.768 266.127 274.559 265.995 275.349C265.863 276.14 266.259 276.93 266.522 277.721L278.379 278.906C278.379 279.038 278.379 279.17 278.379 279.302C278.906 277.984 279.038 276.271 278.643 274.69Z" fill="#197858"/>
<path d="M227.13 281.805C226.998 281.278 226.735 280.751 226.603 280.356C225.681 280.883 224.759 281.541 224.232 282.463C224.232 282.068 223.705 281.937 223.441 282.068C223.046 282.2 222.914 282.595 222.782 282.99C222.387 282.068 221.729 281.41 220.938 280.751C220.938 281.937 220.806 282.99 220.543 284.176C220.279 284.044 219.752 284.176 219.752 284.571C219.357 284.308 219.094 284.176 218.698 283.913C217.776 285.098 217.381 286.811 217.776 288.26L229.897 283.913C229.633 282.859 229.37 281.805 229.106 280.751C228.448 280.751 227.657 281.146 227.13 281.805Z" fill="#197858"/>
<path d="M424.486 256.905C446.356 258.881 472.31 260.462 494.048 263.36L494.311 258.617C476.525 255.983 457.686 253.875 424.486 256.905Z" fill="#197858"/>
<path d="M184.444 296.297C212.243 298.932 208.422 281.014 208.422 281.014C206.183 279.829 196.433 287.602 196.433 287.602C207.5 275.744 203.416 267.971 203.416 267.971C194.984 269.421 189.978 282.2 189.978 282.2C191.295 273.9 187.211 268.63 187.211 268.63C172.719 279.565 184.444 296.297 184.444 296.297Z" fill="#226647"/>
<path d="M185.894 293.135C185.762 293.135 185.63 293.003 185.63 292.871V275.876C185.63 275.744 185.762 275.613 185.894 275.613C186.025 275.613 186.157 275.744 186.157 275.876V292.871C186.289 293.003 186.157 293.135 185.894 293.135Z" fill="#83A352"/>
<path d="M188.66 294.189H188.529C188.397 294.057 188.265 293.925 188.397 293.794L199.464 273.505C199.595 273.373 199.727 273.241 199.859 273.373C199.991 273.505 200.122 273.637 199.991 273.768L188.924 294.057C188.792 294.189 188.792 294.189 188.66 294.189Z" fill="#83A352"/>
<path d="M188.529 295.77C188.397 295.77 188.265 295.638 188.265 295.506C188.265 295.375 188.265 295.111 188.529 295.111C188.66 295.111 198.937 291.686 204.865 285.757C204.997 285.625 205.129 285.625 205.26 285.757C205.392 285.889 205.392 286.021 205.26 286.152C199.2 292.344 188.66 295.77 188.529 295.77Z" fill="#83A352"/>
<path d="M146.106 285.362C140.441 272.846 135.171 282.463 135.171 282.463C131.878 277.457 123.446 284.44 125.949 289.183C120.811 288.129 117.254 294.452 117.254 294.452L146.238 294.584V285.362H146.106Z" fill="#226647"/>
<path d="M189.978 296.033C189.978 296.033 186.948 285.757 181.678 282.068C178.648 279.96 172.324 283.386 166.395 280.751C162.443 279.038 157.436 279.302 153.352 280.224C151.113 280.751 146.765 279.829 143.34 281.937C135.83 286.548 134.513 295.375 134.513 295.375C134.513 295.375 167.186 302.884 189.978 296.033Z" fill="#615453"/>
<path d="M184.444 298.8C176.144 298.932 168.371 292.608 168.371 292.608C167.581 294.321 167.581 297.483 167.581 297.483L164.814 294.848C163.892 296.956 165.605 299.986 165.605 299.986L184.444 298.8Z" fill="#469455"/>
<path d="M149.795 298.8C148.873 297.483 151.64 291.949 151.64 291.949L147.292 294.452C147.819 293.794 143.34 292.213 143.34 292.213C144.13 294.716 144.262 298.537 144.789 298.8C145.448 299.195 149.795 298.8 149.795 298.8Z" fill="#469455"/>
<path d="M144.262 283.386C147.292 281.673 150.717 283.122 150.717 283.122C150.717 283.122 153.748 282.595 156.119 284.571C158.49 286.548 161.916 282.99 163.497 283.254C164.946 283.517 168.898 283.517 170.084 284.308C171.27 284.967 173.773 294.584 173.773 294.584C173.773 294.584 173.905 285.098 174.168 284.308C174.432 283.517 181.678 281.937 181.678 281.937C178.648 279.829 172.324 283.254 166.395 280.619C162.443 278.906 157.436 279.17 153.352 280.092C151.113 280.619 146.765 279.697 143.34 281.805C135.83 286.416 134.513 295.243 134.513 295.243C134.513 295.243 141.232 285.098 144.262 283.386Z" fill="#8C8884"/>
<path d="M58.2317 248.868H64.9508C64.9508 248.868 64.5555 239.383 64.9508 237.011C64.9508 237.011 60.9984 238.329 60.8667 243.598L56.6508 234.113C54.9381 236.616 57.8365 243.994 57.8365 243.994C57.8365 243.994 54.1476 240.964 52.6984 240.568C52.6984 240.568 53.3571 245.575 58.2317 248.868Z" fill="#226647"/>
<path d="M59.681 248.868H91.1683C87.8746 242.676 81.0238 244.916 81.0238 244.916L81.5508 242.017L76.5445 243.598C76.5445 243.598 76.9397 236.089 71.2746 237.802C66.7952 239.119 69.6937 245.179 69.6937 245.179C69.6937 245.179 66.4 243.071 64.1603 246.629C64.0286 246.629 59.0222 245.048 59.681 248.868Z" fill="#469455"/>
<path d="M380.351 264.414C423.3 267.576 488.383 267.444 488.383 267.444C501.294 279.697 490.49 295.638 490.49 295.638H380.351V264.414Z" fill="#996A6A"/>
<path d="M488.383 268.762C492.994 273.11 494.575 277.984 494.706 282.332C494.838 277.589 493.521 272.187 488.383 267.313C488.383 267.313 423.168 267.576 380.351 264.283V265.6C423.168 268.894 488.383 268.762 488.383 268.762Z" fill="#B27D6D"/>
<path d="M400.903 272.714H428.833C419.216 270.87 400.903 272.714 400.903 272.714Z" fill="#B27D6D"/>
<path d="M493.389 282.332H418.821C443.194 280.356 493.389 282.332 493.389 282.332Z" fill="#B27D6D"/>
<path d="M398.795 284.835L448.727 285.625C411.179 283.386 398.795 284.835 398.795 284.835Z" fill="#B27D6D"/>
<path d="M390.89 279.96C390.89 279.96 398.795 280.092 400.903 281.146L390.232 282.595L390.89 279.96Z" fill="#785450"/>
<path d="M380.351 291.554V295.506H490.49C490.49 295.506 491.544 293.925 492.598 291.554H380.351Z" fill="#785450"/>
<path d="M427.648 272.451C412.365 272.056 400.903 272.714 400.903 272.714C400.903 272.714 420.402 274.163 427.648 274.427V272.451Z" fill="#785450"/>
<path d="M388.387 285.757L450.967 287.997L387.86 288.524L388.387 285.757Z" fill="#785450"/>
<path d="M493.916 276.271C485.352 276.008 468.752 276.008 440.822 277.721C440.822 277.721 471.256 277.721 494.575 279.433C494.443 278.511 494.311 277.457 493.916 276.271Z" fill="#785450"/>
<path d="M434.498 277.194C439.109 274.427 437.133 270.87 433.576 268.103L434.498 277.194Z" fill="#785450"/>
<path d="M493.389 282.332H418.821L493.389 283.913V282.332Z" fill="#785450"/>
<path d="M435.421 270.475L483.508 271.002C449.386 272.583 435.421 271.397 435.421 271.397V270.475Z" fill="#785450"/>
<path d="M387.202 267.708L402.879 268.63L388.124 268.894L387.202 267.708Z" fill="#785450"/>
<path d="M436.343 272.187C435.684 269.289 433.576 268.498 431.337 265.073C429.756 262.57 427.384 255.587 425.671 253.348L418.03 257.168C418.03 257.168 423.168 264.283 424.486 272.319C425.144 276.667 430.414 279.433 433.971 277.457C435.552 276.798 436.738 274.295 436.343 272.187Z" fill="#996A6A"/>
<path d="M425.935 271.66C424.617 263.887 419.875 257.036 419.479 256.51L417.898 257.3C417.898 257.3 423.036 264.414 424.354 272.451C425.013 276.798 430.283 279.565 433.84 277.589C434.103 277.457 434.235 277.325 434.498 277.194C430.941 278.379 426.594 275.744 425.935 271.66Z" fill="#785450"/>
<path d="M425.54 253.479C427.121 254.929 419.084 258.486 417.898 257.3C416.713 256.246 424.222 252.162 425.54 253.479Z" fill="#B27D6D"/>
<path d="M423.563 258.881C426.198 261.252 427.911 264.546 428.306 268.103C428.438 269.421 428.438 270.738 428.702 271.924C428.965 273.11 429.492 274.427 430.414 275.349C431.336 276.271 432.917 276.535 433.971 276.008C434.235 275.876 434.367 275.744 434.498 275.481C434.63 275.349 434.63 275.086 434.762 274.822C435.157 272.978 434.498 270.87 433.181 269.421C432.654 268.894 431.863 268.367 431.073 268.498C430.282 268.498 429.492 269.289 429.755 270.079C430.151 269.421 431.073 269.289 431.732 269.552C432.39 269.816 432.917 270.343 433.313 271.002C433.84 271.924 434.235 272.978 434.367 274.032C434.367 274.295 434.367 274.559 434.235 274.822C433.971 275.481 433.049 275.481 432.522 275.349C431.336 274.954 430.414 273.9 429.887 272.714C429.36 271.529 429.229 270.211 429.097 269.025C428.965 267.708 428.965 266.522 428.702 265.205C428.306 263.492 427.384 261.911 426.198 260.594C425.013 259.408 424.354 259.276 423.563 258.881Z" fill="#785450"/>
<path d="M424.222 254.006C424.09 254.006 424.09 253.875 424.09 253.875C423.168 254.006 422.378 254.27 421.456 254.533C420.533 254.929 419.611 255.456 419.084 256.246C418.952 256.378 418.821 256.641 418.952 256.773C419.084 257.036 419.348 257.037 419.611 257.037C420.27 257.037 420.929 256.773 421.456 256.51C422.378 256.114 423.432 255.719 424.09 254.929C424.222 254.797 424.222 254.797 424.222 254.665C424.222 254.533 424.222 254.402 424.09 254.402C424.09 254.402 423.959 254.402 423.827 254.402C422.246 254.402 420.797 255.06 419.743 256.114C420.533 255.456 421.719 255.192 422.773 254.929C423.036 254.797 423.432 254.797 423.827 254.797C423.959 254.797 423.959 254.797 424.09 254.929V255.06C423.827 255.456 423.432 255.719 422.905 255.851C421.982 256.246 420.929 256.51 420.006 256.773C419.743 256.773 419.479 256.905 419.479 256.641C419.348 256.51 419.479 256.246 419.743 256.114C420.797 255.06 422.509 254.138 424.222 254.006Z" fill="#996A6A"/>
<path d="M385.094 266.127C394.711 270.606 394.711 295.638 380.351 295.638L385.094 266.127Z" fill="#785450"/>
<path d="M380.351 295.506C386.172 295.506 390.89 288.546 390.89 279.96C390.89 271.374 386.172 264.414 380.351 264.414C374.53 264.414 369.811 271.374 369.811 279.96C369.811 288.546 374.53 295.506 380.351 295.506Z" fill="#B27D6D"/>
<path d="M380.351 293.003C378.243 293.003 376.267 291.554 374.686 289.183C374.554 289.051 384.567 288.524 384.567 288.392C384.435 288.26 374.29 288.26 374.159 288.129C372.973 285.889 372.314 282.99 372.314 279.829C372.314 272.714 376.003 266.786 380.351 266.786C384.171 266.786 387.465 271.397 388.255 277.325C388.255 277.721 390.232 278.379 390.232 278.379C390.232 278.379 388.387 279.302 388.387 279.829C388.387 285.098 386.411 289.71 383.513 291.686C383.381 291.817 386.411 292.081 386.411 292.081C386.411 292.081 382.986 292.081 382.854 292.213C382.063 292.871 381.141 293.003 380.351 293.003Z" fill="#785450"/>
<path d="M387.86 275.349L372.578 276.667C372.71 275.613 372.973 274.559 373.368 273.505L387.86 274.954C387.729 275.217 387.86 275.217 387.86 275.349Z" fill="#996A6A"/>
<path d="M376.398 284.835L373.105 285.889C372.841 285.23 372.71 284.571 372.578 283.913L376.398 284.835Z" fill="#996A6A"/>
<path d="M452.416 333.976C445.038 313.819 430.546 298.8 430.546 298.8C462.033 311.448 468.621 333.976 468.621 333.976H452.416Z" fill="#226647"/>
<path d="M464.273 333.976C460.452 316.19 437.792 283.122 437.792 283.122C465.063 293.925 477.448 333.976 477.448 333.976H464.273Z" fill="#226647"/>
<path d="M448.2 267.576C468.621 306.573 468.621 333.976 468.621 333.976H480.478C476.789 272.978 448.2 267.576 448.2 267.576Z" fill="#226647"/>
<path d="M368.889 322.119C368.757 312.502 370.865 303.411 370.865 303.411C368.625 304.86 365.727 306.31 364.278 312.765C364.278 312.765 363.619 308.417 362.565 304.202C362.565 304.202 359.667 305.387 357.295 313.292C357.295 313.292 355.978 307.759 350.576 301.567C350.576 301.567 347.283 308.417 353.606 321.987L368.889 322.119Z" fill="#226647"/>
<path d="M290.632 322.119C282.727 306.705 295.243 279.96 295.243 279.96C283.122 292.476 279.96 310.525 279.96 310.525C275.481 292.871 265.863 280.619 265.863 280.619C267.444 304.729 272.583 321.987 272.583 321.987L290.632 322.119Z" fill="#226647"/>
<path d="M206.051 321.987C198.936 315.532 205.919 309.076 208.949 312.37C208.027 307.495 208.686 302.489 212.77 302.752C218.567 303.279 217.249 313.292 217.249 313.292C221.07 306.046 224.627 311.448 224.1 314.873C224.363 306.441 228.316 303.675 230.556 304.729C232.795 305.783 233.981 316.19 229.106 321.987H206.051Z" fill="#226647"/>
<path d="M113.433 311.579C110.667 309.603 106.451 310.13 104.211 312.633C100.654 310.262 95.7794 310.525 92.4857 313.16C91.5635 310.789 88.5333 309.471 86.1619 310.262C86.6889 306.968 84.054 303.675 80.7603 303.279C77.4667 302.884 74.3048 305.651 74.0413 308.944C72.0651 307.495 69.1667 307.495 67.3222 308.944C69.5619 305.651 66.1365 300.644 62.0524 300.513C57.9683 300.381 54.5429 303.675 52.9619 307.363C52.3032 306.441 51.381 305.914 50.327 305.783C49.0095 306.968 48.0873 308.549 47.4286 310.262C46.2429 307.89 42.6857 307.1 40.7095 308.813C43.4762 304.07 40.446 297.087 35.1762 295.77C29.9064 294.452 23.9778 299.459 24.373 304.86C24.1095 302.884 21.2111 301.83 19.7619 303.279C17.5222 295.638 7.24605 292.608 0.131762 296.165C-6.98252 299.722 -10.8032 307.89 -11.1984 315.927L-8.82697 320.143C-9.35395 321.46 -10.0127 322.778 -10.5397 324.095C37.0206 321.065 84.7127 322.119 132.405 323.041C129.77 315.532 121.338 310.525 113.433 311.579Z" fill="#226647"/>
<path d="M310.262 291.29C310.13 291.29 310.13 291.29 309.998 291.159C309.735 291.027 309.603 290.632 309.735 290.237C311.184 287.338 312.106 285.889 312.238 285.757C312.502 285.494 312.897 285.362 313.16 285.625C313.424 285.889 313.556 286.284 313.292 286.548C313.292 286.548 312.238 288.129 310.921 290.895C310.657 291.159 310.525 291.29 310.262 291.29Z" fill="#226647"/>
<path d="M307.627 298.536C307.363 298.536 307.1 298.536 306.968 298.405C305.914 298.009 305.387 296.824 305.783 295.902C306.573 293.794 307.495 291.686 308.417 289.841C308.944 288.919 310.13 288.524 311.052 288.919C311.975 289.314 312.37 290.632 311.975 291.554C311.052 293.398 310.262 295.243 309.471 297.351C309.208 298.141 308.417 298.536 307.627 298.536Z" fill="#226647"/>
<path d="M302.094 330.024C301.698 330.024 301.435 329.76 301.435 329.365C300.908 315.268 304.202 303.675 306.968 296.297C307.1 295.902 307.495 295.77 307.759 295.902C308.154 296.033 308.286 296.429 308.154 296.692C305.387 303.806 302.094 315.268 302.752 329.233C302.752 329.76 302.489 330.024 302.094 330.024Z" fill="#226647"/>
<path d="M325.017 301.698C324.886 301.698 324.886 301.698 324.754 301.567C324.49 301.435 324.359 301.04 324.49 300.644C325.94 297.746 326.862 296.297 326.994 296.165C327.257 295.902 327.652 295.77 327.916 296.033C328.179 296.297 328.311 296.692 328.048 296.956C328.048 296.956 326.994 298.536 325.676 301.303C325.544 301.567 325.281 301.698 325.017 301.698Z" fill="#226647"/>
<path d="M322.514 308.944C322.251 308.944 321.987 308.944 321.856 308.813C320.802 308.417 320.275 307.232 320.67 306.309C321.46 304.202 322.383 302.094 323.305 300.249C323.832 299.327 325.017 298.932 325.94 299.327C326.862 299.722 327.257 301.04 326.862 301.962C325.94 303.806 325.149 305.651 324.359 307.759C323.963 308.417 323.305 308.944 322.514 308.944Z" fill="#226647"/>
<path d="M316.981 340.3C316.586 340.3 316.322 340.036 316.322 339.641C315.795 325.544 319.089 313.951 321.856 306.573C321.987 306.178 322.383 306.046 322.646 306.178C323.041 306.309 323.173 306.705 323.041 306.968C320.275 314.083 316.981 325.544 317.64 339.51C317.64 340.037 317.376 340.3 316.981 340.3Z" fill="#226647"/>
<path d="M250.317 299.722C250.449 299.722 250.449 299.722 250.581 299.59C250.844 299.459 250.976 299.064 250.844 298.668C249.395 295.77 248.473 294.321 248.341 294.189C248.078 293.925 247.683 293.794 247.419 294.057C247.156 294.321 247.024 294.716 247.287 294.979C247.287 294.979 248.341 296.56 249.659 299.327C249.922 299.59 250.186 299.722 250.317 299.722Z" fill="#226647"/>
<path d="M252.952 306.968C253.216 306.968 253.479 306.968 253.611 306.836C254.665 306.441 255.192 305.256 254.797 304.333C254.006 302.225 253.084 300.117 252.162 298.273C251.635 297.351 250.449 296.956 249.527 297.351C248.605 297.746 248.21 299.063 248.605 299.986C249.527 301.83 250.317 303.675 251.108 305.783C251.371 306.441 252.162 306.968 252.952 306.968Z" fill="#226647"/>
<path d="M258.486 338.324C258.881 338.324 259.144 338.06 259.144 337.665C259.671 323.568 256.378 311.975 253.611 304.597C253.479 304.202 253.084 304.07 252.821 304.202C252.425 304.333 252.294 304.729 252.425 304.992C255.192 312.106 258.486 323.568 257.827 337.533C257.827 338.06 258.09 338.324 258.486 338.324Z" fill="#226647"/>
<g clip-path="url(#clip1_21_24085)">
<path d="M287.986 272.787C287.854 271.997 287.196 265.41 287.986 263.829L288.645 264.092C288.118 265.278 288.513 270.679 288.645 272.656L287.986 272.787Z" fill="#226647"/>
<path d="M288.381 266.991C289.836 266.991 291.016 266.342 291.016 265.541C291.016 264.741 289.836 264.092 288.381 264.092C286.926 264.092 285.746 264.741 285.746 265.541C285.746 266.342 286.926 266.991 288.381 266.991Z" fill="#F0C518"/>
<path d="M288.777 264.488C290.232 264.488 291.412 263.839 291.412 263.038C291.412 262.238 290.232 261.589 288.777 261.589C287.321 261.589 286.142 262.238 286.142 263.038C286.142 263.839 287.321 264.488 288.777 264.488Z" fill="#F0C518"/>
<path d="M286.01 265.41C287.465 265.41 288.645 264.761 288.645 263.96C288.645 263.16 287.465 262.511 286.01 262.511C284.555 262.511 283.375 263.16 283.375 263.96C283.375 264.761 284.555 265.41 286.01 265.41Z" fill="#FFE32B"/>
<path d="M291.148 265.805C292.603 265.805 293.783 265.156 293.783 264.356C293.783 263.555 292.603 262.907 291.148 262.907C289.693 262.907 288.513 263.555 288.513 264.356C288.513 265.156 289.693 265.805 291.148 265.805Z" fill="#FFE32B"/>
<path d="M288.513 264.487C289.168 264.487 289.699 264.251 289.699 263.96C289.699 263.669 289.168 263.433 288.513 263.433C287.858 263.433 287.327 263.669 287.327 263.96C287.327 264.251 287.858 264.487 288.513 264.487Z" fill="#D6653C"/>
<path d="M257.29 275.422C257.158 274.5 256.367 266.859 257.29 265.014L257.948 265.41C257.29 266.859 257.685 273.051 257.948 275.422H257.29Z" fill="#226647"/>
<path d="M257.685 268.703C259.358 268.703 260.715 267.936 260.715 266.99C260.715 266.045 259.358 265.278 257.685 265.278C256.011 265.278 254.654 266.045 254.654 266.99C254.654 267.936 256.011 268.703 257.685 268.703Z" fill="#F0C518"/>
<path d="M258.212 265.805C259.885 265.805 261.242 265.038 261.242 264.092C261.242 263.146 259.885 262.379 258.212 262.379C256.538 262.379 255.181 263.146 255.181 264.092C255.181 265.038 256.538 265.805 258.212 265.805Z" fill="#F0C518"/>
<path d="M254.918 266.99C256.591 266.99 257.948 266.224 257.948 265.278C257.948 264.332 256.591 263.565 254.918 263.565C253.244 263.565 251.888 264.332 251.888 265.278C251.888 266.224 253.244 266.99 254.918 266.99Z" fill="#FFE32B"/>
<path d="M260.978 267.254C262.652 267.254 264.008 266.487 264.008 265.541C264.008 264.596 262.652 263.829 260.978 263.829C259.305 263.829 257.948 264.596 257.948 265.541C257.948 266.487 259.305 267.254 260.978 267.254Z" fill="#FFE32B"/>
<path d="M257.948 265.936C258.748 265.936 259.397 265.642 259.397 265.278C259.397 264.914 258.748 264.619 257.948 264.619C257.148 264.619 256.499 264.914 256.499 265.278C256.499 265.642 257.148 265.936 257.948 265.936Z" fill="#D6653C"/>
<path d="M301.029 271.075C301.029 270.548 300.502 265.541 301.029 264.224L301.424 264.487C301.029 265.41 301.292 269.494 301.424 271.075H301.029Z" fill="#226647"/>
<path d="M301.292 266.727C302.384 266.727 303.268 266.196 303.268 265.541C303.268 264.886 302.384 264.356 301.292 264.356C300.201 264.356 299.316 264.886 299.316 265.541C299.316 266.196 300.201 266.727 301.292 266.727Z" fill="#F0C518"/>
<path d="M301.687 264.883C302.779 264.883 303.664 264.352 303.664 263.697C303.664 263.042 302.779 262.511 301.687 262.511C300.596 262.511 299.711 263.042 299.711 263.697C299.711 264.352 300.596 264.883 301.687 264.883Z" fill="#F0C518"/>
<path d="M299.448 265.541C300.539 265.541 301.424 265.011 301.424 264.356C301.424 263.701 300.539 263.17 299.448 263.17C298.356 263.17 297.472 263.701 297.472 264.356C297.472 265.011 298.356 265.541 299.448 265.541Z" fill="#FFE32B"/>
<path d="M303.4 265.805C304.492 265.805 305.376 265.274 305.376 264.619C305.376 263.964 304.492 263.433 303.4 263.433C302.309 263.433 301.424 263.964 301.424 264.619C301.424 265.274 302.309 265.805 303.4 265.805Z" fill="#FFE32B"/>
<path d="M301.424 264.751C301.933 264.751 302.346 264.574 302.346 264.356C302.346 264.138 301.933 263.961 301.424 263.961C300.915 263.961 300.502 264.138 300.502 264.356C300.502 264.574 300.915 264.751 301.424 264.751Z" fill="#D6653C"/>
<path d="M276.392 265.805C276.392 265.278 275.865 261.194 276.392 260.14L276.787 260.272C276.392 261.062 276.655 264.488 276.787 265.673L276.392 265.805Z" fill="#226647"/>
<path d="M276.656 262.116C277.602 262.116 278.368 261.703 278.368 261.194C278.368 260.685 277.602 260.272 276.656 260.272C275.71 260.272 274.943 260.685 274.943 261.194C274.943 261.703 275.71 262.116 276.656 262.116Z" fill="#F0C518"/>
<path d="M276.919 260.535C277.865 260.535 278.632 260.122 278.632 259.613C278.632 259.104 277.865 258.691 276.919 258.691C275.973 258.691 275.206 259.104 275.206 259.613C275.206 260.122 275.973 260.535 276.919 260.535Z" fill="#F0C518"/>
<path d="M275.075 261.194C276.021 261.194 276.787 260.781 276.787 260.272C276.787 259.762 276.021 259.349 275.075 259.349C274.129 259.349 273.362 259.762 273.362 260.272C273.362 260.781 274.129 261.194 275.075 261.194Z" fill="#FFE32B"/>
<path d="M278.5 261.326C279.446 261.326 280.213 260.913 280.213 260.404C280.213 259.894 279.446 259.481 278.5 259.481C277.554 259.481 276.788 259.894 276.788 260.404C276.788 260.913 277.554 261.326 278.5 261.326Z" fill="#FFE32B"/>
<path d="M276.787 260.667C277.224 260.667 277.578 260.49 277.578 260.271C277.578 260.053 277.224 259.876 276.787 259.876C276.351 259.876 275.997 260.053 275.997 260.271C275.997 260.49 276.351 260.667 276.787 260.667Z" fill="#D6653C"/>
<path d="M236.605 268.045C236.605 267.649 236.21 263.96 236.605 263.17L236.869 263.302C236.605 263.96 236.737 266.991 236.869 268.045H236.605Z" fill="#226647"/>
<path d="M236.737 264.883C237.537 264.883 238.186 264.529 238.186 264.092C238.186 263.656 237.537 263.302 236.737 263.302C235.936 263.302 235.288 263.656 235.288 264.092C235.288 264.529 235.936 264.883 236.737 264.883Z" fill="#F0C518"/>
<path d="M237 263.433C237.801 263.433 238.449 263.08 238.449 262.643C238.449 262.206 237.801 261.853 237 261.853C236.2 261.853 235.551 262.206 235.551 262.643C235.551 263.08 236.2 263.433 237 263.433Z" fill="#F0C518"/>
<path d="M235.419 264.092C236.22 264.092 236.869 263.738 236.869 263.302C236.869 262.865 236.22 262.511 235.419 262.511C234.619 262.511 233.97 262.865 233.97 263.302C233.97 263.738 234.619 264.092 235.419 264.092Z" fill="#FFE32B"/>
<path d="M238.318 264.224C239.118 264.224 239.767 263.87 239.767 263.434C239.767 262.997 239.118 262.643 238.318 262.643C237.517 262.643 236.868 262.997 236.868 263.434C236.868 263.87 237.517 264.224 238.318 264.224Z" fill="#FFE32B"/>
<path d="M236.868 263.565C237.232 263.565 237.527 263.447 237.527 263.302C237.527 263.156 237.232 263.038 236.868 263.038C236.505 263.038 236.21 263.156 236.21 263.302C236.21 263.447 236.505 263.565 236.868 263.565Z" fill="#D6653C"/>
<path d="M206.04 271.338C206.04 270.943 205.644 267.254 206.04 266.464L206.303 266.595C206.04 267.254 206.171 270.284 206.303 271.338H206.04Z" fill="#226647"/>
<path d="M206.303 268.045C207.104 268.045 207.752 267.691 207.752 267.254C207.752 266.818 207.104 266.464 206.303 266.464C205.503 266.464 204.854 266.818 204.854 267.254C204.854 267.691 205.503 268.045 206.303 268.045Z" fill="#F0C518"/>
<path d="M206.435 266.727C207.236 266.727 207.884 266.373 207.884 265.937C207.884 265.5 207.236 265.146 206.435 265.146C205.635 265.146 204.986 265.5 204.986 265.937C204.986 266.373 205.635 266.727 206.435 266.727Z" fill="#F0C518"/>
<path d="M204.986 267.254C205.786 267.254 206.435 266.9 206.435 266.463C206.435 266.027 205.786 265.673 204.986 265.673C204.185 265.673 203.537 266.027 203.537 266.463C203.537 266.9 204.185 267.254 204.986 267.254Z" fill="#FFE32B"/>
<path d="M207.753 267.386C208.553 267.386 209.202 267.032 209.202 266.595C209.202 266.159 208.553 265.805 207.753 265.805C206.952 265.805 206.303 266.159 206.303 266.595C206.303 267.032 206.952 267.386 207.753 267.386Z" fill="#FFE32B"/>
<path d="M206.303 266.727C206.667 266.727 206.962 266.609 206.962 266.464C206.962 266.318 206.667 266.2 206.303 266.2C205.94 266.2 205.645 266.318 205.645 266.464C205.645 266.609 205.94 266.727 206.303 266.727Z" fill="#D6653C"/>
<path d="M149.257 277.267C149.126 276.872 148.599 273.314 148.994 272.392L149.389 272.524C149.126 273.183 149.521 276.213 149.784 277.267H149.257Z" fill="#226647"/>
<path d="M149.179 273.971C149.977 273.915 150.6 273.518 150.57 273.082C150.54 272.646 149.868 272.338 149.069 272.394C148.271 272.449 147.648 272.847 147.678 273.283C147.709 273.718 148.38 274.026 149.179 273.971Z" fill="#F0C518"/>
<path d="M149.315 272.654C150.113 272.599 150.736 272.201 150.706 271.765C150.675 271.33 150.004 271.022 149.205 271.077C148.407 271.133 147.784 271.531 147.814 271.966C147.844 272.402 148.516 272.71 149.315 272.654Z" fill="#F0C518"/>
<path d="M147.734 273.317C148.533 273.262 149.156 272.864 149.125 272.428C149.095 271.993 148.423 271.685 147.625 271.74C146.826 271.796 146.204 272.194 146.234 272.629C146.264 273.065 146.936 273.373 147.734 273.317Z" fill="#FFE32B"/>
<path d="M150.627 273.184C151.426 273.128 152.048 272.73 152.018 272.295C151.988 271.859 151.316 271.551 150.518 271.607C149.719 271.662 149.096 272.06 149.127 272.496C149.157 272.931 149.829 273.239 150.627 273.184Z" fill="#FFE32B"/>
<path d="M149.145 272.659C149.508 272.634 149.794 272.495 149.784 272.35C149.774 272.205 149.471 272.108 149.108 272.133C148.746 272.158 148.459 272.296 148.47 272.442C148.48 272.587 148.782 272.684 149.145 272.659Z" fill="#D6653C"/>
<path d="M342.661 265.278C342.661 264.883 342.265 261.194 342.661 260.403L342.924 260.535C342.661 261.194 342.792 264.224 342.924 265.278H342.661Z" fill="#226647"/>
<path d="M342.792 261.984C343.593 261.984 344.242 261.63 344.242 261.194C344.242 260.757 343.593 260.403 342.792 260.403C341.992 260.403 341.343 260.757 341.343 261.194C341.343 261.63 341.992 261.984 342.792 261.984Z" fill="#F0C518"/>
<path d="M343.056 260.667C343.856 260.667 344.505 260.313 344.505 259.876C344.505 259.44 343.856 259.086 343.056 259.086C342.255 259.086 341.607 259.44 341.607 259.876C341.607 260.313 342.255 260.667 343.056 260.667Z" fill="#F0C518"/>
<path d="M341.475 261.194C342.275 261.194 342.924 260.84 342.924 260.403C342.924 259.966 342.275 259.613 341.475 259.613C340.674 259.613 340.026 259.966 340.026 260.403C340.026 260.84 340.674 261.194 341.475 261.194Z" fill="#FFE32B"/>
<path d="M344.373 261.325C345.174 261.325 345.822 260.971 345.822 260.535C345.822 260.098 345.174 259.744 344.373 259.744C343.573 259.744 342.924 260.098 342.924 260.535C342.924 260.971 343.573 261.325 344.373 261.325Z" fill="#FFE32B"/>
<path d="M342.924 260.667C343.288 260.667 343.583 260.549 343.583 260.403C343.583 260.258 343.288 260.14 342.924 260.14C342.56 260.14 342.265 260.258 342.265 260.403C342.265 260.549 342.56 260.667 342.924 260.667Z" fill="#D6653C"/>
<path d="M301.161 292.813C301.161 292.286 300.634 287.28 301.161 286.094L301.556 286.357C301.161 287.28 301.424 291.232 301.556 292.813H301.161Z" fill="#226647"/>
<path d="M301.424 288.333C302.516 288.333 303.401 287.862 303.401 287.279C303.401 286.697 302.516 286.225 301.424 286.225C300.333 286.225 299.448 286.697 299.448 287.279C299.448 287.862 300.333 288.333 301.424 288.333Z" fill="#F0C518"/>
<path d="M301.688 286.489C302.779 286.489 303.664 286.017 303.664 285.435C303.664 284.853 302.779 284.381 301.688 284.381C300.596 284.381 299.712 284.853 299.712 285.435C299.712 286.017 300.596 286.489 301.688 286.489Z" fill="#F0C518"/>
<path d="M299.58 287.28C300.671 287.28 301.556 286.808 301.556 286.226C301.556 285.644 300.671 285.172 299.58 285.172C298.488 285.172 297.603 285.644 297.603 286.226C297.603 286.808 298.488 287.28 299.58 287.28Z" fill="#FFE32B"/>
<path d="M303.532 287.411C304.623 287.411 305.508 286.939 305.508 286.357C305.508 285.775 304.623 285.303 303.532 285.303C302.441 285.303 301.556 285.775 301.556 286.357C301.556 286.939 302.441 287.411 303.532 287.411Z" fill="#FFE32B"/>
<path d="M301.556 286.621C302.065 286.621 302.478 286.444 302.478 286.226C302.478 286.008 302.065 285.831 301.556 285.831C301.047 285.831 300.634 286.008 300.634 286.226C300.634 286.444 301.047 286.621 301.556 286.621Z" fill="#D6653C"/>
<path d="M437.913 262.116C437.913 261.721 438.045 258.032 438.572 257.241L438.835 257.505C438.44 258.164 438.308 261.062 438.177 262.248L437.913 262.116Z" fill="#226647"/>
<path d="M439.999 258.272C440.058 257.839 439.463 257.401 438.67 257.293C437.877 257.185 437.186 257.448 437.127 257.881C437.068 258.313 437.663 258.752 438.456 258.86C439.25 258.967 439.94 258.704 439.999 258.272Z" fill="#F0C518"/>
<path d="M440.42 256.982C440.479 256.549 439.884 256.111 439.091 256.003C438.298 255.895 437.607 256.158 437.548 256.591C437.49 257.024 438.085 257.462 438.878 257.57C439.671 257.678 440.362 257.415 440.42 256.982Z" fill="#F0C518"/>
<path d="M438.87 257.282C438.929 256.849 438.334 256.411 437.541 256.303C436.748 256.195 436.057 256.458 435.998 256.891C435.939 257.323 436.534 257.762 437.328 257.869C438.121 257.977 438.811 257.714 438.87 257.282Z" fill="#FFE32B"/>
<path d="M441.672 257.867C441.731 257.435 441.135 256.996 440.342 256.888C439.549 256.78 438.859 257.044 438.8 257.476C438.741 257.909 439.336 258.347 440.129 258.455C440.922 258.563 441.613 258.3 441.672 257.867Z" fill="#FFE32B"/>
<path d="M439.449 257.33C439.469 257.186 439.193 257.029 438.832 256.98C438.472 256.931 438.163 257.008 438.144 257.152C438.124 257.297 438.401 257.453 438.761 257.502C439.122 257.551 439.43 257.474 439.449 257.33Z" fill="#D6653C"/>
<path d="M223.958 276.608C223.694 276.213 221.191 272.787 221.059 271.733H221.454C221.586 272.524 223.562 275.422 224.221 276.345L223.958 276.608Z" fill="#226647"/>
<path d="M222.187 273.281C222.999 272.797 223.447 272.05 223.186 271.612C222.925 271.175 222.055 271.213 221.242 271.697C220.43 272.182 219.983 272.929 220.244 273.366C220.504 273.804 221.374 273.766 222.187 273.281Z" fill="#F0C518"/>
<path d="M221.677 271.807C222.489 271.323 222.936 270.575 222.676 270.138C222.415 269.7 221.545 269.738 220.732 270.223C219.92 270.707 219.473 271.454 219.734 271.892C219.994 272.329 220.864 272.291 221.677 271.807Z" fill="#F0C518"/>
<path d="M220.48 273.239C221.293 272.755 221.74 272.007 221.479 271.57C221.218 271.132 220.348 271.17 219.536 271.655C218.723 272.139 218.276 272.886 218.537 273.324C218.798 273.761 219.668 273.723 220.48 273.239Z" fill="#FFE32B"/>
<path d="M223.36 271.676C224.173 271.192 224.62 270.445 224.359 270.007C224.098 269.57 223.228 269.608 222.416 270.092C221.603 270.577 221.156 271.324 221.417 271.761C221.678 272.199 222.548 272.161 223.36 271.676Z" fill="#FFE32B"/>
<path d="M221.502 271.926C221.877 271.702 222.09 271.369 221.978 271.182C221.867 270.994 221.472 271.023 221.097 271.247C220.722 271.471 220.509 271.804 220.621 271.991C220.732 272.179 221.127 272.149 221.502 271.926Z" fill="#D6653C"/>
<path d="M228.568 275.159C228.568 274.5 228.305 269.23 228.964 268.045L229.49 268.308C228.963 269.23 229.095 273.578 229.227 275.159H228.568Z" fill="#226647"/>
<path d="M231.318 269.402C231.351 268.748 230.436 268.169 229.274 268.11C228.111 268.05 227.141 268.531 227.107 269.185C227.074 269.839 227.989 270.418 229.151 270.478C230.314 270.538 231.284 270.056 231.318 269.402Z" fill="#F0C518"/>
<path d="M231.748 267.502C231.782 266.848 230.867 266.269 229.704 266.21C228.541 266.15 227.571 266.631 227.538 267.285C227.504 267.939 228.419 268.518 229.582 268.578C230.745 268.638 231.714 268.156 231.748 267.502Z" fill="#F0C518"/>
<path d="M229.436 268.114C229.47 267.46 228.555 266.881 227.392 266.821C226.229 266.761 225.259 267.243 225.226 267.897C225.192 268.551 226.107 269.13 227.27 269.19C228.433 269.25 229.402 268.768 229.436 268.114Z" fill="#FFE32B"/>
<path d="M233.531 268.596C233.565 267.942 232.649 267.363 231.487 267.303C230.324 267.244 229.354 267.725 229.321 268.379C229.287 269.033 230.202 269.612 231.365 269.672C232.527 269.732 233.497 269.25 233.531 268.596Z" fill="#FFE32B"/>
<path d="M230.345 268.258C230.36 267.968 229.96 267.711 229.451 267.685C228.942 267.658 228.518 267.873 228.503 268.163C228.488 268.454 228.888 268.711 229.397 268.737C229.905 268.763 230.33 268.549 230.345 268.258Z" fill="#D6653C"/>
<path d="M402.473 256.056C397.071 261.325 409.324 264.487 409.324 264.487C409.324 264.487 407.347 251.445 402.473 256.056Z" fill="#FFE32B"/>
<path d="M409.06 264.487C412.09 262.248 414.066 255.133 410.509 255.265C405.239 255.529 409.06 264.487 409.06 264.487Z" fill="#F0C518"/>
<path d="M409.06 264.487C406.821 267.122 402.473 268.44 400.365 265.937C397.203 262.379 405.503 259.481 409.06 264.487Z" fill="#F0C518"/>
<path d="M440.284 337.079C427.505 278.716 408.401 264.224 408.27 264.092L409.06 263.038C409.851 263.565 428.69 277.925 441.601 336.816L440.284 337.079Z" fill="#226647"/>
<path d="M425.001 287.411C417.887 283.195 406.425 281.087 406.294 285.303C406.294 291.759 425.001 287.411 425.001 287.411Z" fill="#4AB54E"/>
<path d="M421.312 279.111C421.312 271.206 424.738 265.146 427.109 266.727C432.511 270.152 421.312 279.111 421.312 279.111Z" fill="#4AB54E"/>
<path d="M409.982 264.751C409.587 266.859 404.844 267.913 404.449 267.254C404.054 266.595 406.952 264.224 406.952 264.224C406.03 263.565 404.844 261.589 405.24 260.799C405.635 260.008 408.928 262.248 408.928 262.248C408.928 262.248 410.773 258.954 412.222 259.613C413.013 259.745 412.881 263.829 409.982 264.751Z" fill="#226647"/>
<path d="M395.227 289.519C388.903 293.603 400.233 299.137 400.233 299.137C400.233 299.137 400.892 285.962 395.227 289.519Z" fill="#FFE32B"/>
<path d="M399.97 299.005C403.395 297.424 406.821 290.837 403.264 290.31C398.125 289.519 399.97 299.005 399.97 299.005Z" fill="#F0C518"/>
<path d="M399.97 299.005C397.203 301.113 392.724 301.64 391.143 298.741C388.771 294.657 397.467 293.34 399.97 299.005Z" fill="#F0C518"/>
<path d="M416.043 376.471C415.252 316.791 399.575 298.741 399.311 298.61L400.233 297.687C400.892 298.478 416.438 316.264 417.228 376.471H416.043Z" fill="#226647"/>
<path d="M410.905 324.696C404.713 319.162 393.91 314.683 393.119 318.899C391.802 325.223 410.905 324.696 410.905 324.696Z" fill="#226647"/>
<path d="M408.929 315.868C410.509 308.095 415.121 302.826 417.229 304.802C421.84 309.413 408.929 315.868 408.929 315.868Z" fill="#226647"/>
<path d="M400.892 299.532C400.102 301.508 395.227 301.508 394.964 300.849C394.7 300.191 397.994 298.346 397.994 298.346C397.335 297.556 396.544 295.316 397.071 294.657C397.598 293.998 400.497 296.765 400.497 296.765C400.497 296.765 403 293.998 404.186 294.921C404.713 295.316 403.791 299.268 400.892 299.532Z" fill="#226647"/>
<path d="M71.7903 256.056C77.1918 261.325 64.9395 264.487 64.9395 264.487C64.9395 264.487 66.9157 251.445 71.7903 256.056Z" fill="#FFE32B"/>
<path d="M65.2028 264.487C62.1727 262.248 60.1965 255.133 63.7536 255.265C69.0235 255.529 65.2028 264.487 65.2028 264.487Z" fill="#F0C518"/>
<path d="M65.2029 264.487C67.4426 267.122 71.7902 268.44 73.8982 265.937C77.0601 262.379 68.7601 259.481 65.2029 264.487Z" fill="#F0C518"/>
<path d="M33.9791 337.079C46.7585 278.716 65.8617 264.224 65.9934 264.092L65.2029 263.038C64.4125 263.565 45.5728 277.925 32.6617 336.816L33.9791 337.079Z" fill="#226647"/>
<path d="M49.3934 287.411C56.5077 283.195 67.9696 281.087 68.1013 285.303C67.9696 291.759 49.3934 287.411 49.3934 287.411Z" fill="#226647"/>
<path d="M52.9505 279.111C52.9505 271.206 49.5251 265.146 47.1537 266.727C41.7521 270.152 52.9505 279.111 52.9505 279.111Z" fill="#226647"/>
<path d="M64.2807 264.751C64.676 266.859 69.4188 267.913 69.814 267.254C70.2093 266.595 67.3109 264.224 67.3109 264.224C68.2331 263.565 69.4188 261.589 69.0236 260.799C68.6283 260.008 65.3347 262.248 65.3347 262.248C65.3347 262.248 63.4902 258.954 62.041 259.613C61.2506 259.745 61.3823 263.829 64.2807 264.751Z" fill="#226647"/>
<path d="M96.0316 266.99C102.355 271.075 91.0252 276.608 91.0252 276.608C91.0252 276.608 90.3665 263.433 96.0316 266.99Z" fill="#FFE32B"/>
<path d="M91.4205 276.608C87.9952 275.027 84.5698 268.44 88.1269 267.913C93.265 266.99 91.4205 276.608 91.4205 276.608Z" fill="#F0C518"/>
<path d="M91.4205 276.608C94.1872 278.716 98.6666 279.243 100.248 276.344C102.619 272.129 93.9237 270.943 91.4205 276.608Z" fill="#F0C518"/>
<path d="M75.3477 353.943C76.1382 294.262 91.8159 276.213 92.0794 276.081L91.1572 275.159C90.4985 275.949 74.9525 293.735 74.162 353.943H75.3477Z" fill="#226647"/>
<path d="M80.354 302.167C86.546 296.633 97.3492 292.154 98.1397 296.37C99.5889 302.825 80.354 302.167 80.354 302.167Z" fill="#226647"/>
<path d="M82.3302 293.471C80.7493 285.698 76.1382 280.428 74.0302 282.405C69.5509 286.884 82.3302 293.471 82.3302 293.471Z" fill="#226647"/>
<path d="M90.4984 277.003C91.2888 278.979 96.1634 278.979 96.4269 278.321C96.6904 277.662 93.3967 275.817 93.3967 275.817C94.0555 275.027 94.846 272.787 94.319 272.129C93.792 271.47 90.8936 274.236 90.8936 274.236C90.8936 274.236 88.3904 271.47 87.2047 272.392C86.546 272.787 87.4682 276.74 90.4984 277.003Z" fill="#226647"/>
<path d="M311.832 337.08L310.514 336.948C310.514 336.684 312.095 309.94 316.97 296.238L318.156 296.634C313.413 310.335 311.832 336.816 311.832 337.08Z" fill="#226647"/>
<path d="M320.264 285.83C326.587 294.657 316.179 301.245 316.179 301.245C312.754 291.627 318.024 285.83 320.264 285.83Z" fill="#D6653C"/>
<path d="M316.179 301.244C316.311 298.61 322.24 292.681 322.24 292.681C323.689 301.244 316.179 301.244 316.179 301.244Z" fill="#226647"/>
<path d="M316.179 301.245C312.49 299.137 315.257 291.232 315.257 291.232C319.736 293.603 316.179 301.245 316.179 301.245Z" fill="#226647"/>
<path d="M316.18 301.245C314.203 294.13 319.341 291.232 319.341 291.232C323.162 297.424 316.18 301.245 316.18 301.245Z" fill="#226647"/>
<path d="M104.068 338.265L102.751 338.133C102.751 337.87 104.332 311.126 109.206 297.424L110.392 297.819C105.649 311.521 104.068 338.002 104.068 338.265Z" fill="#226647"/>
<path d="M112.5 287.016C118.824 295.843 108.416 302.43 108.416 302.43C104.859 292.813 110.128 287.016 112.5 287.016Z" fill="#FFE32B"/>
<path d="M108.284 302.562C108.416 299.927 114.344 293.999 114.344 293.999C115.794 302.562 108.284 302.562 108.284 302.562Z" fill="#226647"/>
<path d="M108.284 302.562C104.595 300.454 107.362 292.549 107.362 292.549C111.973 294.789 108.284 302.562 108.284 302.562Z" fill="#226647"/>
<path d="M108.284 302.562C106.308 295.448 111.446 292.549 111.446 292.549C115.267 298.61 108.284 302.562 108.284 302.562Z" fill="#226647"/>
<path d="M250.57 342.086L251.887 341.954C251.887 341.691 250.306 314.946 245.432 301.244L244.246 301.64C248.989 315.21 250.57 341.69 250.57 342.086Z" fill="#226647"/>
<path d="M242.138 290.705C235.814 299.532 246.222 306.119 246.222 306.119C249.779 296.502 244.509 290.705 242.138 290.705Z" fill="#F9F4F4"/>
<path d="M246.354 306.251C246.222 303.616 240.293 297.687 240.293 297.687C238.712 306.251 246.354 306.251 246.354 306.251Z" fill="#226647"/>
<path d="M246.354 306.251C250.043 304.143 247.276 296.238 247.276 296.238C242.665 298.478 246.354 306.251 246.354 306.251Z" fill="#226647"/>
<path d="M246.354 306.251C248.33 299.136 243.192 296.238 243.192 296.238C239.371 302.298 246.354 306.251 246.354 306.251Z" fill="#226647"/>
<path d="M156.635 338.529H155.317C155.317 338.265 154.659 311.521 158.347 297.424L159.665 297.819C155.976 311.784 156.635 338.265 156.635 338.529Z" fill="#226647"/>
<path d="M160.851 286.752C167.965 294.921 158.084 302.43 158.084 302.43C153.736 293.076 158.479 287.016 160.851 286.752Z" fill="#D6653C"/>
<path d="M157.952 302.562C157.82 299.927 163.222 293.603 163.222 293.603C165.462 301.903 157.952 302.562 157.952 302.562Z" fill="#226647"/>
<path d="M157.952 302.562C154 300.717 156.108 292.681 156.108 292.681C160.983 294.525 157.952 302.562 157.952 302.562Z" fill="#226647"/>
<path d="M157.952 302.562C155.449 295.579 160.192 292.286 160.192 292.286C164.539 298.082 157.952 302.562 157.952 302.562Z" fill="#226647"/>
</g>
</g>
<defs>
<clipPath id="clip0_21_24085">
<rect width="474.286" height="316.19" fill="white"/>
</clipPath>
<clipPath id="clip1_21_24085">
<rect width="409.071" height="60.8667" fill="white" transform="translate(32.6619 255.133)"/>
</clipPath>
</defs>
</svg>
